<?xml version="1.0" encoding="UTF-8" standalone="no" ?>
<COLLADA xmlns="http://www.collada.org/2005/11/COLLADASchema" version="1.4.1">
    <asset>
        <contributor>
            <authoring_tool>SketchUp 26.1.185</authoring_tool>
        </contributor>
        <created>2026-01-22T17:02:50Z</created>
        <modified>2026-01-22T17:02:50Z</modified>
        <unit meter="0.0254" name="inch"/>
        <up_axis>Z_UP</up_axis>
    </asset>
    <library_cameras>
        <camera id="ID1" name="skp_camera_Last_Saved_SketchUp_View">
            <optics>
                <technique_common>
                    <perspective>
                        <yfov>35</yfov>
                        <aspect_ratio>0</aspect_ratio>
                        <znear>1</znear>
                        <zfar>1000</zfar>
                    </perspective>
                </technique_common>
            </optics>
        </camera>
    </library_cameras>
    <library_visual_scenes>
        <visual_scene id="ID2">
            <node name="SketchUp">
                <node name="skp_camera_Last_Saved_SketchUp_View">
                    <matrix>0.1046553 -0.4583524 0.8825873 16.12502 0.9945086 0.04823387 -0.09287744 -0.3069556 6.938894e-18 0.8874608 0.4608833 7.661471 0 0 0 1</matrix>
                    <instance_camera url="#ID1"/>
                </node>
                <node id="ID3" name="group_0">
                    <matrix>-4.163336e-17 0 -1 1.968504 0 1 0 -8.837908e-11 1 0 -4.163336e-17 2.775558e-17 0 0 0 1</matrix>
                    <instance_geometry url="#ID4">
                        <bind_material>
                            <technique_common>
                                <instance_material symbol="Material2" target="#ID6">
                                    <bind_vertex_input semantic="UVSET0" input_semantic="TEXCOORD" input_set="0"/>
                                </instance_material>
                            </technique_common>
                        </bind_material>
                    </instance_geometry>
                    <instance_geometry url="#ID12">
                        <bind_material>
                            <technique_common>
                                <instance_material symbol="Material2" target="#ID6">
                                    <bind_vertex_input semantic="UVSET0" input_semantic="TEXCOORD" input_set="0"/>
                                </instance_material>
                            </technique_common>
                        </bind_material>
                    </instance_geometry>
                    <instance_geometry url="#ID18">
                        <bind_material>
                            <technique_common>
                                <instance_material symbol="Material2" target="#ID6">
                                    <bind_vertex_input semantic="UVSET0" input_semantic="TEXCOORD" input_set="0"/>
                                </instance_material>
                            </technique_common>
                        </bind_material>
                    </instance_geometry>
                    <instance_geometry url="#ID24">
                        <bind_material>
                            <technique_common>
                                <instance_material symbol="Material2" target="#ID6">
                                    <bind_vertex_input semantic="UVSET0" input_semantic="TEXCOORD" input_set="0"/>
                                </instance_material>
                            </technique_common>
                        </bind_material>
                    </instance_geometry>
                    <instance_geometry url="#ID30">
                        <bind_material>
                            <technique_common>
                                <instance_material symbol="Material2" target="#ID6">
                                    <bind_vertex_input semantic="UVSET0" input_semantic="TEXCOORD" input_set="0"/>
                                </instance_material>
                            </technique_common>
                        </bind_material>
                    </instance_geometry>
                </node>
                <node id="ID36" name="group_1">
                    <matrix>4.489659e-10 -10 7.21645e-16 1.279528 10 4.489659e-10 6.245005e-16 -0.09842519 6.244995e-16 -9.992007e-16 -10 0.5537123 0 0 0 1</matrix>
                    <instance_geometry url="#ID37">
                        <bind_material>
                            <technique_common>
                                <instance_material symbol="Material2" target="#ID38">
                                    <bind_vertex_input semantic="UVSET0" input_semantic="TEXCOORD" input_set="0"/>
                                </instance_material>
                            </technique_common>
                        </bind_material>
                    </instance_geometry>
                    <instance_geometry url="#ID45">
                        <bind_material>
                            <technique_common>
                                <instance_material symbol="Material2" target="#ID38">
                                    <bind_vertex_input semantic="UVSET0" input_semantic="TEXCOORD" input_set="0"/>
                                </instance_material>
                            </technique_common>
                        </bind_material>
                    </instance_geometry>
                    <instance_geometry url="#ID51">
                        <bind_material>
                            <technique_common>
                                <instance_material symbol="Material2" target="#ID38">
                                    <bind_vertex_input semantic="UVSET0" input_semantic="TEXCOORD" input_set="0"/>
                                </instance_material>
                            </technique_common>
                        </bind_material>
                    </instance_geometry>
                    <instance_geometry url="#ID57">
                        <bind_material>
                            <technique_common>
                                <instance_material symbol="Material2" target="#ID38">
                                    <bind_vertex_input semantic="UVSET0" input_semantic="TEXCOORD" input_set="0"/>
                                </instance_material>
                            </technique_common>
                        </bind_material>
                    </instance_geometry>
                    <instance_geometry url="#ID63">
                        <bind_material>
                            <technique_common>
                                <instance_material symbol="Material2" target="#ID38">
                                    <bind_vertex_input semantic="UVSET0" input_semantic="TEXCOORD" input_set="0"/>
                                </instance_material>
                                <instance_material symbol="Material3" target="#ID67">
                                    <bind_vertex_input semantic="UVSET0" input_semantic="TEXCOORD" input_set="0"/>
                                </instance_material>
                            </technique_common>
                        </bind_material>
                    </instance_geometry>
                    <instance_geometry url="#ID71">
                        <bind_material>
                            <technique_common>
                                <instance_material symbol="Material2" target="#ID38">
                                    <bind_vertex_input semantic="UVSET0" input_semantic="TEXCOORD" input_set="0"/>
                                </instance_material>
                                <instance_material symbol="Material3" target="#ID67">
                                    <bind_vertex_input semantic="UVSET0" input_semantic="TEXCOORD" input_set="0"/>
                                </instance_material>
                            </technique_common>
                        </bind_material>
                    </instance_geometry>
                    <instance_geometry url="#ID77">
                        <bind_material>
                            <technique_common>
                                <instance_material symbol="Material2" target="#ID38">
                                    <bind_vertex_input semantic="UVSET0" input_semantic="TEXCOORD" input_set="0"/>
                                </instance_material>
                                <instance_material symbol="Material3" target="#ID67">
                                    <bind_vertex_input semantic="UVSET0" input_semantic="TEXCOORD" input_set="0"/>
                                </instance_material>
                            </technique_common>
                        </bind_material>
                    </instance_geometry>
                    <instance_geometry url="#ID83">
                        <bind_material>
                            <technique_common>
                                <instance_material symbol="Material2" target="#ID38">
                                    <bind_vertex_input semantic="UVSET0" input_semantic="TEXCOORD" input_set="0"/>
                                </instance_material>
                                <instance_material symbol="Material3" target="#ID67">
                                    <bind_vertex_input semantic="UVSET0" input_semantic="TEXCOORD" input_set="0"/>
                                </instance_material>
                            </technique_common>
                        </bind_material>
                    </instance_geometry>
                </node>
                <node id="ID89" name="Shape">
                    <matrix>1.897354e-18 0 -0.01 -1.103284e-15 0 0.01 0 -6.661338e-16 0.01 0 1.897354e-18 1.003937 0 0 0 1</matrix>
                    <node id="ID90" name="Shape">
                        <matrix>1 0 0 0 0 1 0 0 0 0 1 0 0 0 0 1</matrix>
                        <node id="ID91" name="Shape">
                            <matrix>0.2755906 0 0 0 0 1.237308e-11 -0.2755906 0 0 0.2755906 1.237308e-11 0 0 0 0 1</matrix>
                            <instance_node url="#ID92"/>
                        </node>
                    </node>
                </node>
            </node>
        </visual_scene>
    </library_visual_scenes>
    <library_geometries>
        <geometry id="ID4">
            <mesh>
                <source id="ID7">
                    <float_array id="ID10" count="756">0.1968504 0.1968504 0.1968504 0.8267716 0.1968504 0.6889764 1.496063 0.1968504 0.1968504 0.1968504 0.1968504 3.740157 0.8267716 0.1968504 0.8858268 0.8267716 0.1968504 1.476378 1.023622 0.1968504 0.8858268 1.023622 0.1968504 1.476378 0.8267716 0.1968504 1.673228 0.8267716 0.1968504 2.26378 1.023622 0.1968504 2.26378 0.8267716 0.1968504 2.46063 0.8267716 0.1968504 3.051181 0.8267716 0.1968504 3.248031 1.023622 0.1968504 3.248031 1.023622 0.1968504 0.6889764 1.496063 0.1968504 3.740157 1.023622 0.1968504 1.673228 1.023622 0.1968504 2.46063 1.023622 0.1968504 3.051181 1.811024 3.188977 3.740157 0.1968504 0.1968504 3.740157 0.1968504 3.188977 3.740157 1.496063 0.6692914 3.740157 1.811024 0.6692914 3.740157 1.496063 0.1968504 3.740157 1.496063 0.1968504 3.740157 1.496063 0.6692914 0.1968504 1.496063 0.1968504 0.1968504 1.496063 0.6692914 0.4527559 1.496063 0.6692914 3.740157 1.496063 0.6692914 3.484252 1.496063 1.850394 3.129921 1.496063 1.850394 0.8070866 1.496063 3.188977 3.484252 1.496063 3.188977 3.129921 1.496063 3.188977 0.4527559 1.496063 3.188977 0.8070866 1.496063 0.1968504 0.1968504 0.1968504 3.188977 0.1968504 0.1968504 0.1968504 0.1968504 1.496063 0.6692914 0.1968504 1.811024 3.188977 0.1968504 1.811024 0.6692914 0.1968504 0.1968504 0.1968504 0.1968504 0.1968504 2.677165 0.5905512 0.1968504 0.1968504 3.740157 0.1968504 3.188977 0.1968504 0.1968504 3.188977 0.5905512 0.1968504 2.677165 3.346457 0.1968504 3.188977 3.740157 0.1968504 3.188977 3.346457 1.496063 0.6692914 3.740157 1.811024 0.6692914 3.484252 1.496063 0.6692914 3.484252 1.811024 0.6692914 3.740157 1.108174e-16 3.188977 3.937008 1.811024 3.188977 3.740157 0.1968504 3.188977 3.740157 2.007874 3.188977 3.937008 1.811024 0.6692914 3.740157 1.811024 3.188977 3.484252 1.811024 0.6692914 3.484252 1.811024 3.188977 3.740157 1.496063 3.188977 0.8070866 1.692913 3.188977 0.6496063 1.496063 3.188977 0.4527559 1.692913 3.188977 0.8070866 1.811024 3.188977 0.4527559 1.496063 0.6692914 0.4527559 1.496063 3.188977 0.4527559 1.811024 0.6692914 0.4527559 1.496063 0.6692914 0.4527559 1.811024 0.6692914 0.1968504 1.496063 0.6692914 0.1968504 1.811024 0.6692914 0.4527559 1.811024 0.6692914 3.484252 1.496063 3.188977 3.484252 1.496063 0.6692914 3.484252 1.811024 3.188977 3.484252 1.496063 3.188977 3.484252 1.692913 3.188977 3.129921 1.496063 3.188977 3.129921 1.692913 3.188977 3.287402 1.692913 3.188977 3.129921 1.496063 1.850394 3.129921 1.496063 3.188977 3.129921 1.692913 1.850394 3.129921 1.496063 1.850394 3.129921 1.692913 1.850394 0.8070866 1.496063 1.850394 0.8070866 1.692913 1.850394 1.279528 1.692913 1.850394 2.65748 1.692913 1.850394 3.129921 1.692913 1.850394 0.8070866 1.496063 3.188977 0.8070866 1.496063 1.850394 0.8070866 1.692913 3.188977 0.8070866 1.811024 0.6692914 0.4527559 1.811024 3.188977 0.1968504 1.811024 0.6692914 0.1968504 1.811024 3.188977 0.4527559 0.1968504 3.188977 0.1968504 2.007874 3.188977 2.220446e-16 0 3.188977 0 1.811024 3.188977 0.1968504 1.108174e-16 3.188977 3.937008 0.1968504 3.188977 3.346457 2.758142e-17 3.188977 3.346457 0.1968504 3.188977 3.740157 8.323599e-17 3.188977 0.5905512 0.1968504 3.188977 0.1968504 0 3.188977 0 0.1968504 3.188977 0.5905512 8.323599e-17 2.677165 0.5905512 0.1968504 3.188977 0.5905512 8.323599e-17 3.188977 0.5905512 0.1968504 2.677165 0.5905512 2.758142e-17 2.677165 3.346457 0.1968504 2.677165 0.5905512 8.323599e-17 2.677165 0.5905512 0.1968504 2.677165 3.346457 0.1968504 3.188977 3.346457 2.758142e-17 2.677165 3.346457 2.758142e-17 3.188977 3.346457 0.1968504 2.677165 3.346457 1.108174e-16 0.472441 3.937008 2.007874 3.188977 3.937008 1.108174e-16 3.188977 3.937008 1.692913 0.472441 3.937008 2.007874 0.472441 3.937008 1.811024 3.188977 3.484252 2.007874 3.188977 3.937008 2.007874 3.188977 3.287402 1.811024 3.188977 3.740157 1.692913 0.472441 0.6496063 1.692913 1.220472 1.279528 1.692913 0.472441 3.287402 1.692913 1.850394 0.8070866 1.692913 3.188977 0.6496063 1.692913 3.188977 0.8070866 1.692913 1.850394 1.279528 1.692913 1.850394 3.129921 1.692913 3.188977 3.287402 1.692913 1.220472 2.65748 1.692913 1.850394 2.65748 1.692913 3.188977 3.129921 1.692913 3.188977 0.6496063 1.811024 3.188977 0.4527559 1.496063 3.188977 0.4527559 2.007874 3.188977 0.6496063 1.496063 3.188977 3.484252 2.007874 3.188977 3.287402 1.692913 3.188977 3.287402 1.811024 3.188977 3.484252 1.692913 1.850394 1.279528 1.968504 1.377953 2.65748 1.968504 1.377953 1.279528 1.692913 1.850394 2.65748 1.811024 3.188977 0.1968504 2.007874 3.188977 0.6496063 2.007874 3.188977 2.220446e-16 1.811024 3.188977 0.4527559 2.007874 3.188977 2.220446e-16 1.719012e-26 0.472441 1.219631e-10 0 3.188977 0 1.692913 0.472441 1.219631e-10 2.007874 0.472441 1.219633e-10 1.108174e-16 0.472441 3.937008 2.758142e-17 2.677165 3.346457 8.323599e-17 2.677165 0.5905512 1.108174e-16 3.188977 3.937008 2.758142e-17 3.188977 3.346457 1.108174e-16 1.767582e-10 3.937008 1.719012e-26 0.472441 1.219631e-10 2.018015e-26 -3.661373e-17 1.431741e-10 0 3.188977 0 8.323599e-17 3.188977 0.5905512 1.108174e-16 1.767582e-10 3.937008 1.692913 0.472441 3.937008 1.108174e-16 0.472441 3.937008 1.692913 1.767582e-10 3.937008 2.007874 0.472441 3.937008 1.692913 0.472441 3.287402 2.007874 0.472441 3.287402 1.692913 0.472441 3.937008 2.007874 3.188977 3.287402 2.007874 0.472441 3.937008 2.007874 0.472441 3.287402 2.007874 3.188977 3.937008 2.007874 3.188977 3.287402 1.692913 0.472441 3.287402 1.692913 3.188977 3.287402 2.007874 0.472441 3.287402 1.692913 0.472441 1.219631e-10 1.692913 1.767582e-10 3.937008 1.692913 -3.661373e-17 1.431741e-10 1.692913 0.472441 0.6496063 1.692913 0.472441 3.937008 1.692913 0.472441 3.287402 2.007874 0.472441 0.6496063 1.692913 3.188977 0.6496063 1.692913 0.472441 0.6496063 2.007874 3.188977 0.6496063 1.968504 1.377953 1.279528 1.692913 1.220472 1.279528 1.692913 1.850394 1.279528 1.968504 1.220472 1.279528 1.968504 1.220472 2.65748 1.692913 1.220472 1.279528 1.968504 1.220472 1.279528 1.692913 1.220472 2.65748 1.968504 1.220472 2.65748 1.692913 1.850394 2.65748 1.692913 1.220472 2.65748 1.968504 1.377953 2.65748 1.968504 1.377953 1.279528 1.968504 1.220472 2.65748 1.968504 1.220472 1.279528 1.968504 1.377953 2.65748 2.007874 3.188977 2.220446e-16 2.007874 0.472441 0.6496063 2.007874 0.472441 1.219633e-10 2.007874 3.188977 0.6496063 2.007874 0.472441 1.219633e-10 1.692913 0.472441 0.6496063 1.692913 0.472441 1.219631e-10 2.007874 0.472441 0.6496063 1.692913 0.472441 1.219631e-10 2.018015e-26 -3.661373e-17 1.431741e-10 1.719012e-26 0.472441 1.219631e-10 1.692913 -3.661373e-17 1.431741e-10 1.692913 -3.661373e-17 1.431741e-10 1.023622 3.093265e-11 0.6889764 2.018015e-26 -3.661373e-17 1.431741e-10 1.692913 1.767582e-10 3.937008 1.023622 3.977057e-11 0.8858268 1.023622 6.62843e-11 1.476378 0.8267716 3.977057e-11 0.8858268 1.023622 7.512221e-11 1.673228 0.8267716 7.512221e-11 1.673228 1.023622 1.016359e-10 2.26378 1.023622 1.104739e-10 2.46063 0.8267716 1.104739e-10 2.46063 1.023622 1.369876e-10 3.051181 1.023622 1.458255e-10 3.248031 0.8267716 1.458255e-10 3.248031 0.8267716 3.093265e-11 0.6889764 1.108174e-16 1.767582e-10 3.937008 0.8267716 6.62843e-11 1.476378 0.8267716 1.016359e-10 2.26378 0.8267716 1.369876e-10 3.051181</float_array>
                    <technique_common>
                        <accessor count="252" source="#ID10" stride="3">
                            <param name="X" type="float"/>
                            <param name="Y" type="float"/>
                            <param name="Z" type="float"/>
                        </accessor>
                    </technique_common>
                </source>
                <source id="ID8">
                    <float_array id="ID11" count="756">7.174648e-43 1 -4.489659e-11 7.174648e-43 1 -4.489659e-11 7.174648e-43 1 -4.489659e-11 7.174648e-43 1 -4.489659e-11 7.174648e-43 1 -4.489659e-11 7.174648e-43 1 -4.489659e-11 7.174648e-43 1 -4.489659e-11 7.174648e-43 1 -4.489659e-11 7.174648e-43 1 -4.489659e-11 7.174648e-43 1 -4.489659e-11 7.174648e-43 1 -4.489659e-11 7.174648e-43 1 -4.489659e-11 7.174648e-43 1 -4.489659e-11 7.174648e-43 1 -4.489659e-11 7.174648e-43 1 -4.489659e-11 7.174648e-43 1 -4.489659e-11 7.174648e-43 1 -4.489659e-11 7.174648e-43 1 -4.489659e-11 7.174648e-43 1 -4.489659e-11 7.174648e-43 1 -4.489659e-11 -1.725633e-31 -4.489659e-11 -1 -1.725633e-31 -4.489659e-11 -1 -1.725633e-31 -4.489659e-11 -1 -1.725633e-31 -4.489659e-11 -1 -1.725633e-31 -4.489659e-11 -1 -1.725633e-31 -4.489659e-11 -1 -1 0 1.725633e-31 -1 0 1.725633e-31 -1 0 1.725633e-31 -1 0 1.725633e-31 -1 0 1.725633e-31 -1 0 1.725633e-31 -1 0 1.725633e-31 -1 0 1.725633e-31 -1 0 1.725633e-31 -1 0 1.725633e-31 -1 0 1.725633e-31 -1 0 1.725633e-31 1.725633e-31 4.489659e-11 1 1.725633e-31 4.489659e-11 1 1.725633e-31 4.489659e-11 1 1.725633e-31 4.489659e-11 1 1.725633e-31 4.489659e-11 1 1.725633e-31 4.489659e-11 1 1 0 -1.725633e-31 1 0 -1.725633e-31 1 0 -1.725633e-31 1 0 -1.725633e-31 1 0 -1.725633e-31 1 0 -1.725633e-31 1 0 -1.725633e-31 1 0 -1.725633e-31 7.174648e-43 1 -4.489659e-11 7.174648e-43 1 -4.489659e-11 7.174648e-43 1 -4.489659e-11 7.174648e-43 1 -4.489659e-11 1.060344e-26 1 -4.489612e-11 1.060344e-26 1 -4.489612e-11 1.060344e-26 1 -4.489612e-11 1.060344e-26 1 -4.489612e-11 -1 0 1.725633e-31 -1 0 1.725633e-31 -1 0 1.725633e-31 -1 0 1.725633e-31 1.554772e-16 1 -4.489643e-11 1.554772e-16 1 -4.489643e-11 1.554772e-16 1 -4.489643e-11 1.554772e-16 1 -4.489643e-11 -1.725633e-31 -4.489659e-11 -1 -1.725633e-31 -4.489659e-11 -1 -1.725633e-31 -4.489659e-11 -1 -1.725633e-31 -4.489659e-11 -1 7.174648e-43 1 -4.489659e-11 7.174648e-43 1 -4.489659e-11 7.174648e-43 1 -4.489659e-11 7.174648e-43 1 -4.489659e-11 1.725633e-31 4.489659e-11 1 1.725633e-31 4.489659e-11 1 1.725633e-31 4.489659e-11 1 1.725633e-31 4.489659e-11 1 -1.554772e-16 1 -4.489643e-11 -1.554772e-16 1 -4.489643e-11 -1.554772e-16 1 -4.489643e-11 -1.554772e-16 1 -4.489643e-11 -1.725633e-31 -4.489659e-11 -1 -1.725633e-31 -4.489659e-11 -1 -1.725633e-31 -4.489659e-11 -1 -1.725633e-31 -4.489659e-11 -1 7.174648e-43 1 -4.489659e-11 7.174648e-43 1 -4.489659e-11 7.174648e-43 1 -4.489659e-11 7.174648e-43 1 -4.489659e-11 7.174648e-43 1 -4.489659e-11 7.174648e-43 1 -4.489659e-11 1.725633e-31 4.489659e-11 1 1.725633e-31 4.489659e-11 1 1.725633e-31 4.489659e-11 1 1.725633e-31 4.489659e-11 1 -1 0 1.725633e-31 -1 0 1.725633e-31 -1 0 1.725633e-31 -1 0 1.725633e-31 4.637987e-27 1 -4.489612e-11 4.637987e-27 1 -4.489612e-11 4.637987e-27 1 -4.489612e-11 4.637987e-27 1 -4.489612e-11 -4.33841e-16 1 -4.489699e-11 -4.33841e-16 1 -4.489699e-11 -4.33841e-16 1 -4.489699e-11 -4.33841e-16 1 -4.489699e-11 4.33841e-16 1 -4.489699e-11 4.33841e-16 1 -4.489699e-11 4.33841e-16 1 -4.489699e-11 4.33841e-16 1 -4.489699e-11 1.725633e-31 4.489659e-11 1 1.725633e-31 4.489659e-11 1 1.725633e-31 4.489659e-11 1 1.725633e-31 4.489659e-11 1 7.174648e-43 1 -4.489659e-11 7.174648e-43 1 -4.489659e-11 7.174648e-43 1 -4.489659e-11 7.174648e-43 1 -4.489659e-11 -1.725633e-31 -4.489659e-11 -1 -1.725633e-31 -4.489659e-11 -1 -1.725633e-31 -4.489659e-11 -1 -1.725633e-31 -4.489659e-11 -1 -1.901246e-16 4.489656e-11 1 -1.901246e-16 4.489656e-11 1 -1.901246e-16 4.489656e-11 1 -1.901246e-16 4.489656e-11 1 -1.901246e-16 4.489656e-11 1 3.949663e-25 1 -4.48967e-11 3.949663e-25 1 -4.48967e-11 3.949663e-25 1 -4.48967e-11 3.949663e-25 1 -4.48967e-11 1 4.518169e-17 -1.483067e-16 1 4.518169e-17 -1.483067e-16 1 4.518169e-17 -1.483067e-16 1 4.518169e-17 -1.483067e-16 1 4.518169e-17 -1.483067e-16 1 4.518169e-17 -1.483067e-16 1 4.518169e-17 -1.483067e-16 1 4.518169e-17 -1.483067e-16 1 4.518169e-17 -1.483067e-16 1 4.518169e-17 -1.483067e-16 1 4.518169e-17 -1.483067e-16 1 4.518169e-17 -1.483067e-16 1.841143e-25 1 -4.489612e-11 1.841143e-25 1 -4.489612e-11 1.841143e-25 1 -4.489612e-11 1.841143e-25 1 -4.489612e-11 8.889319e-26 1 -4.489612e-11 8.889319e-26 1 -4.489612e-11 8.889319e-26 1 -4.489612e-11 8.889319e-26 1 -4.489612e-11 0.8637789 0.5038711 -2.26221e-11 0.8637789 0.5038711 -2.26221e-11 0.8637789 0.5038711 -2.26221e-11 0.8637789 0.5038711 -2.26221e-11 -2.080004e-25 1 -4.48967e-11 -2.080004e-25 1 -4.48967e-11 -2.080004e-25 1 -4.48967e-11 -2.080004e-25 1 -4.48967e-11 6.413001e-17 -4.489654e-11 -1 6.413001e-17 -4.489654e-11 -1 6.413001e-17 -4.489654e-11 -1 6.413001e-17 -4.489654e-11 -1 6.413001e-17 -4.489654e-11 -1 -1 0 1.725633e-31 -1 0 1.725633e-31 -1 0 1.725633e-31 -1 0 1.725633e-31 -1 0 1.725633e-31 -1 0 1.725633e-31 -1 0 1.725633e-31 -1 0 1.725633e-31 -1 0 1.725633e-31 -1 0 1.725633e-31 -1.213762e-16 4.489574e-11 1 -1.213762e-16 4.489574e-11 1 -1.213762e-16 4.489574e-11 1 -1.213762e-16 4.489574e-11 1 -7.174648e-43 -1 4.489659e-11 -7.174648e-43 -1 4.489659e-11 -7.174648e-43 -1 4.489659e-11 -7.174648e-43 -1 4.489659e-11 1 0 -1.725633e-31 1 0 -1.725633e-31 1 0 -1.725633e-31 1 0 -1.725633e-31 -1.725633e-31 -4.489659e-11 -1 -1.725633e-31 -4.489659e-11 -1 -1.725633e-31 -4.489659e-11 -1 -1.725633e-31 -4.489659e-11 -1 1 5.521168e-27 -1.796355e-17 1 5.521168e-27 -1.796355e-17 1 5.521168e-27 -1.796355e-17 1 5.521168e-27 -1.796355e-17 1 5.521168e-27 -1.796355e-17 1 5.521168e-27 -1.796355e-17 1.725633e-31 4.489659e-11 1 1.725633e-31 4.489659e-11 1 1.725633e-31 4.489659e-11 1 1.725633e-31 4.489659e-11 1 -1.725633e-31 -4.489659e-11 -1 -1.725633e-31 -4.489659e-11 -1 -1.725633e-31 -4.489659e-11 -1 -1.725633e-31 -4.489659e-11 -1 -7.174648e-43 -1 4.489659e-11 -7.174648e-43 -1 4.489659e-11 -7.174648e-43 -1 4.489659e-11 -7.174648e-43 -1 4.489659e-11 1.725633e-31 4.489659e-11 1 1.725633e-31 4.489659e-11 1 1.725633e-31 4.489659e-11 1 1.725633e-31 4.489659e-11 1 1 0 -1.725633e-31 1 0 -1.725633e-31 1 0 -1.725633e-31 1 0 -1.725633e-31 1 0 -1.725633e-31 1 0 -1.725633e-31 1 0 -1.725633e-31 1 0 -1.725633e-31 -7.174648e-43 -1 4.489659e-11 -7.174648e-43 -1 4.489659e-11 -7.174648e-43 -1 4.489659e-11 -7.174648e-43 -1 4.489659e-11 -9.785049e-18 -4.489668e-11 -1 -9.785049e-18 -4.489668e-11 -1 -9.785049e-18 -4.489668e-11 -1 -9.785049e-18 -4.489668e-11 -1 -7.174648e-43 -1 4.489659e-11 -7.174648e-43 -1 4.489659e-11 -7.174648e-43 -1 4.489659e-11 -7.174648e-43 -1 4.489659e-11 -7.174648e-43 -1 4.489659e-11 -7.174648e-43 -1 4.489659e-11 -7.174648e-43 -1 4.489659e-11 -7.174648e-43 -1 4.489659e-11 -7.174648e-43 -1 4.489659e-11 -7.174648e-43 -1 4.489659e-11 -7.174648e-43 -1 4.489659e-11 -7.174648e-43 -1 4.489659e-11 -7.174648e-43 -1 4.489659e-11 -7.174648e-43 -1 4.489659e-11 -7.174648e-43 -1 4.489659e-11 -7.174648e-43 -1 4.489659e-11 -7.174648e-43 -1 4.489659e-11 -7.174648e-43 -1 4.489659e-11 -7.174648e-43 -1 4.489659e-11 -7.174648e-43 -1 4.489659e-11</float_array>
                    <technique_common>
                        <accessor count="252" source="#ID11" stride="3">
                            <param name="X" type="float"/>
                            <param name="Y" type="float"/>
                            <param name="Z" type="float"/>
                        </accessor>
                    </technique_common>
                </source>
                <vertices id="ID9">
                    <input semantic="POSITION" source="#ID7"/>
                    <input semantic="NORMAL" source="#ID8"/>
                </vertices>
                <triangles count="176" material="Material2">
                    <input offset="0" semantic="VERTEX" source="#ID9"/>
                    <p>0 1 2 1 0 3 1 3 4 4 3 5 4 5 6 6 5 7 5 3 8 8 3 9 8 9 10 9 3 11 11 3 12 12 3 13 13 3 14 2 15 16 15 2 1 16 15 6 16 6 7 16 7 17 16 17 10 10 17 8 16 10 18 16 18 11 16 11 19 19 11 12 16 19 14 16 14 3 20 21 22 21 20 23 23 20 24 25 21 23 26 27 28 27 26 29 29 26 30 29 30 31 31 32 33 32 31 34 32 34 35 29 33 36 33 29 31 36 33 37 38 39 40 39 38 41 39 41 42 42 41 43 44 45 46 45 44 47 45 47 48 46 49 50 49 46 45 50 49 51 52 53 54 53 52 55 56 57 58 57 56 59 60 61 62 61 60 63 64 65 66 65 64 67 68 69 70 69 68 71 72 73 74 73 72 75 76 77 78 77 76 79 80 81 82 81 80 83 84 85 86 85 84 87 88 89 90 89 88 91 91 88 92 92 88 93 94 95 96 95 94 97 98 99 100 99 98 101 102 103 104 103 102 105 106 107 108 107 106 109 110 111 112 111 110 113 114 115 116 115 114 117 118 119 120 119 118 121 122 123 124 123 122 125 126 127 128 127 126 129 127 129 130 131 132 133 132 131 134 135 136 137 136 135 138 138 135 139 138 139 140 141 136 138 137 142 143 142 137 144 144 137 136 142 144 145 143 142 146 147 148 149 148 147 150 151 152 153 152 151 154 155 156 157 156 155 158 159 160 161 160 159 162 163 164 165 164 163 166 166 163 167 168 169 170 169 168 171 169 171 172 173 174 175 174 173 168 174 168 170 174 170 176 176 170 177 178 179 180 179 178 181 182 183 184 183 182 185 186 187 188 187 186 189 190 191 192 191 190 193 194 195 196 195 194 197 195 197 198 198 197 199 200 201 202 201 200 203 204 205 206 205 204 207 208 209 210 209 208 211 212 213 214 213 212 215 216 217 218 217 216 219 220 221 222 221 220 223 224 225 226 225 224 227 228 229 230 229 228 231 232 233 234 233 232 235 233 235 236 236 235 237 236 237 238 237 235 239 239 235 240 240 235 241 241 235 242 242 235 243 243 235 244 244 235 245 245 235 246 234 247 248 247 234 233 248 247 238 248 238 249 249 238 237 248 249 240 248 240 250 250 240 241 248 250 243 248 243 251 251 243 244 248 251 246 248 246 235</p>
                </triangles>
            </mesh>
        </geometry>
        <geometry id="ID12">
            <mesh>
                <source id="ID13">
                    <float_array id="ID16" count="48">1.023622 0.1968504 3.248031 0.8267716 1.458255e-10 3.248031 0.8267716 0.1968504 3.248031 1.023622 1.458255e-10 3.248031 1.023622 1.458255e-10 3.248031 1.023622 0.1968504 3.051181 1.023622 1.369876e-10 3.051181 1.023622 0.1968504 3.248031 0.8267716 0.1968504 3.051181 0.8267716 1.458255e-10 3.248031 0.8267716 1.369876e-10 3.051181 0.8267716 0.1968504 3.248031 1.023622 1.369876e-10 3.051181 0.8267716 0.1968504 3.051181 0.8267716 1.369876e-10 3.051181 1.023622 0.1968504 3.051181</float_array>
                    <technique_common>
                        <accessor count="16" source="#ID16" stride="3">
                            <param name="X" type="float"/>
                            <param name="Y" type="float"/>
                            <param name="Z" type="float"/>
                        </accessor>
                    </technique_common>
                </source>
                <source id="ID14">
                    <float_array id="ID17" count="48">-1.409463e-16 -4.489387e-11 -1 -1.409463e-16 -4.489387e-11 -1 -1.409463e-16 -4.489387e-11 -1 -1.409463e-16 -4.489387e-11 -1 -1 0 1.409463e-16 -1 0 1.409463e-16 -1 0 1.409463e-16 -1 0 1.409463e-16 1 -7.596322e-26 -1.832926e-15 1 -7.596322e-26 -1.832926e-15 1 -7.596322e-26 -1.832926e-15 1 -7.596322e-26 -1.832926e-15 1.409463e-16 4.489838e-11 1 1.409463e-16 4.489838e-11 1 1.409463e-16 4.489838e-11 1 1.409463e-16 4.489838e-11 1</float_array>
                    <technique_common>
                        <accessor count="16" source="#ID17" stride="3">
                            <param name="X" type="float"/>
                            <param name="Y" type="float"/>
                            <param name="Z" type="float"/>
                        </accessor>
                    </technique_common>
                </source>
                <vertices id="ID15">
                    <input semantic="POSITION" source="#ID13"/>
                    <input semantic="NORMAL" source="#ID14"/>
                </vertices>
                <triangles count="8" material="Material2">
                    <input offset="0" semantic="VERTEX" source="#ID15"/>
                    <p>0 1 2 1 0 3 4 5 6 5 4 7 8 9 10 9 8 11 12 13 14 13 12 15</p>
                </triangles>
            </mesh>
        </geometry>
        <geometry id="ID18">
            <mesh>
                <source id="ID19">
                    <float_array id="ID22" count="48">1.023622 0.1968504 2.46063 0.8267716 1.104739e-10 2.46063 0.8267716 0.1968504 2.46063 1.023622 1.104739e-10 2.46063 1.023622 1.104739e-10 2.46063 1.023622 0.1968504 2.26378 1.023622 1.016359e-10 2.26378 1.023622 0.1968504 2.46063 0.8267716 0.1968504 2.26378 0.8267716 1.104739e-10 2.46063 0.8267716 1.016359e-10 2.26378 0.8267716 0.1968504 2.46063 1.023622 1.016359e-10 2.26378 0.8267716 0.1968504 2.26378 0.8267716 1.016359e-10 2.26378 1.023622 0.1968504 2.26378</float_array>
                    <technique_common>
                        <accessor count="16" source="#ID22" stride="3">
                            <param name="X" type="float"/>
                            <param name="Y" type="float"/>
                            <param name="Z" type="float"/>
                        </accessor>
                    </technique_common>
                </source>
                <source id="ID20">
                    <float_array id="ID23" count="48">-1.268933e-15 -4.489499e-11 -1 -1.268933e-15 -4.489499e-11 -1 -1.268933e-15 -4.489499e-11 -1 -1.268933e-15 -4.489499e-11 -1 -1 -1.519306e-25 -3.243013e-15 -1 -1.519306e-25 -3.243013e-15 -1 -1.519306e-25 -3.243013e-15 -1 -1.519306e-25 -3.243013e-15 1 -7.596138e-26 -1.832926e-15 1 -7.596138e-26 -1.832926e-15 1 -7.596138e-26 -1.832926e-15 1 -7.596138e-26 -1.832926e-15 1.268933e-15 4.489725e-11 1 1.268933e-15 4.489725e-11 1 1.268933e-15 4.489725e-11 1 1.268933e-15 4.489725e-11 1</float_array>
                    <technique_common>
                        <accessor count="16" source="#ID23" stride="3">
                            <param name="X" type="float"/>
                            <param name="Y" type="float"/>
                            <param name="Z" type="float"/>
                        </accessor>
                    </technique_common>
                </source>
                <vertices id="ID21">
                    <input semantic="POSITION" source="#ID19"/>
                    <input semantic="NORMAL" source="#ID20"/>
                </vertices>
                <triangles count="8" material="Material2">
                    <input offset="0" semantic="VERTEX" source="#ID21"/>
                    <p>0 1 2 1 0 3 4 5 6 5 4 7 8 9 10 9 8 11 12 13 14 13 12 15</p>
                </triangles>
            </mesh>
        </geometry>
        <geometry id="ID24">
            <mesh>
                <source id="ID25">
                    <float_array id="ID28" count="48">1.023622 0.1968504 1.673228 0.8267716 7.512221e-11 1.673228 0.8267716 0.1968504 1.673228 1.023622 7.512221e-11 1.673228 1.023622 7.512221e-11 1.673228 1.023622 0.1968504 1.476378 1.023622 6.62843e-11 1.476378 1.023622 0.1968504 1.673228 0.8267716 0.1968504 1.476378 0.8267716 7.512221e-11 1.673228 0.8267716 6.62843e-11 1.476378 0.8267716 0.1968504 1.673228 1.023622 6.62843e-11 1.476378 0.8267716 0.1968504 1.476378 0.8267716 6.62843e-11 1.476378 1.023622 0.1968504 1.476378</float_array>
                    <technique_common>
                        <accessor count="16" source="#ID28" stride="3">
                            <param name="X" type="float"/>
                            <param name="Y" type="float"/>
                            <param name="Z" type="float"/>
                        </accessor>
                    </technique_common>
                </source>
                <source id="ID26">
                    <float_array id="ID29" count="48">-2.39692e-15 -4.489725e-11 -1 -2.39692e-15 -4.489725e-11 -1 -2.39692e-15 -4.489725e-11 -1 -2.39692e-15 -4.489725e-11 -1 -1 0 1.409463e-16 -1 0 1.409463e-16 -1 0 1.409463e-16 -1 0 1.409463e-16 1 -5.064219e-26 -1.268933e-15 1 -5.064219e-26 -1.268933e-15 1 -5.064219e-26 -1.268933e-15 1 -5.064219e-26 -1.268933e-15 1.832926e-15 4.489669e-11 1 1.832926e-15 4.489669e-11 1 1.832926e-15 4.489669e-11 1 1.832926e-15 4.489669e-11 1</float_array>
                    <technique_common>
                        <accessor count="16" source="#ID29" stride="3">
                            <param name="X" type="float"/>
                            <param name="Y" type="float"/>
                            <param name="Z" type="float"/>
                        </accessor>
                    </technique_common>
                </source>
                <vertices id="ID27">
                    <input semantic="POSITION" source="#ID25"/>
                    <input semantic="NORMAL" source="#ID26"/>
                </vertices>
                <triangles count="8" material="Material2">
                    <input offset="0" semantic="VERTEX" source="#ID27"/>
                    <p>0 1 2 1 0 3 4 5 6 5 4 7 8 9 10 9 8 11 12 13 14 13 12 15</p>
                </triangles>
            </mesh>
        </geometry>
        <geometry id="ID30">
            <mesh>
                <source id="ID31">
                    <float_array id="ID34" count="48">1.023622 0.1968504 0.8858268 0.8267716 3.977057e-11 0.8858268 0.8267716 0.1968504 0.8858268 1.023622 3.977057e-11 0.8858268 1.023622 3.977057e-11 0.8858268 1.023622 0.1968504 0.6889764 1.023622 3.093265e-11 0.6889764 1.023622 0.1968504 0.8858268 0.8267716 0.1968504 0.6889764 0.8267716 3.977057e-11 0.8858268 0.8267716 3.093265e-11 0.6889764 0.8267716 0.1968504 0.8858268 1.023622 3.093265e-11 0.6889764 0.8267716 0.1968504 0.6889764 0.8267716 3.093265e-11 0.6889764 1.023622 0.1968504 0.6889764</float_array>
                    <technique_common>
                        <accessor count="16" source="#ID34" stride="3">
                            <param name="X" type="float"/>
                            <param name="Y" type="float"/>
                            <param name="Z" type="float"/>
                        </accessor>
                    </technique_common>
                </source>
                <source id="ID32">
                    <float_array id="ID35" count="48">-1.409463e-16 -4.489612e-11 -1 -1.409463e-16 -4.489612e-11 -1 -1.409463e-16 -4.489612e-11 -1 -1.409463e-16 -4.489612e-11 -1 -1 -1.519264e-25 -3.243013e-15 -1 -1.519264e-25 -3.243013e-15 -1 -1.519264e-25 -3.243013e-15 -1 -1.519264e-25 -3.243013e-15 1 -7.596322e-26 -1.832926e-15 1 -7.596322e-26 -1.832926e-15 1 -7.596322e-26 -1.832926e-15 1 -7.596322e-26 -1.832926e-15 1.409463e-16 4.489612e-11 1 1.409463e-16 4.489612e-11 1 1.409463e-16 4.489612e-11 1 1.409463e-16 4.489612e-11 1</float_array>
                    <technique_common>
                        <accessor count="16" source="#ID35" stride="3">
                            <param name="X" type="float"/>
                            <param name="Y" type="float"/>
                            <param name="Z" type="float"/>
                        </accessor>
                    </technique_common>
                </source>
                <vertices id="ID33">
                    <input semantic="POSITION" source="#ID31"/>
                    <input semantic="NORMAL" source="#ID32"/>
                </vertices>
                <triangles count="8" material="Material2">
                    <input offset="0" semantic="VERTEX" source="#ID33"/>
                    <p>0 1 2 1 0 3 4 5 6 5 4 7 8 9 10 9 8 11 12 13 14 13 12 15</p>
                </triangles>
            </mesh>
        </geometry>
        <geometry id="ID37">
            <mesh>
                <source id="ID40">
                    <float_array id="ID43" count="216">0.01968504 0.07874016 0.1152952 0.01968504 0.07874016 -0.04699097 5.551115e-17 0.07874016 0.1152952 5.551115e-17 0.07874016 -0.04699097 0.01968504 0.07874016 -0.04699097 5.551115e-17 0.07874016 0.1152952 5.551115e-17 0.07874016 -0.04699097 0.01968504 0.07874016 0.1152952 5.551115e-17 0.0984252 0.1152952 5.551115e-17 0.07874016 0.1152952 5.551115e-17 0.0984252 -0.04699097 5.551115e-17 0.07874016 -0.04699097 5.551115e-17 0.07874016 0.1152952 5.551115e-17 0.0984252 -0.04699097 5.551115e-17 0.07874016 -0.04699097 5.551115e-17 0.0984252 0.1152952 0.01968504 0.0984252 0.1152952 0.01968504 0.0984252 -0.04699097 0.01968504 0.07874016 0.1152952 0.01968504 0.07874016 -0.04699097 0.01968504 0.0984252 -0.04699097 0.01968504 0.07874016 0.1152952 0.01968504 0.07874016 -0.04699097 0.01968504 0.0984252 0.1152952 0.001968503 0.08070866 0.1377953 0.01771653 0.08070866 0.1377953 5.551115e-17 0.07874016 0.1152952 0.01968504 0.07874016 0.1152952 0.01771653 0.08070866 0.1377953 5.551115e-17 0.07874016 0.1152952 0.01968504 0.07874016 0.1152952 0.001968503 0.08070866 0.1377953 0.01968504 0.0984252 0.1152952 5.551115e-17 0.0984252 0.1152952 0.01968504 0.0984252 -0.04699097 5.551115e-17 0.0984252 -0.04699097 5.551115e-17 0.0984252 0.1152952 0.01968504 0.0984252 -0.04699097 5.551115e-17 0.0984252 -0.04699097 0.01968504 0.0984252 0.1152952 0.001968503 0.09645669 0.1377953 0.001968503 0.08070866 0.1377953 5.551115e-17 0.0984252 0.1152952 5.551115e-17 0.07874016 0.1152952 0.001968503 0.08070866 0.1377953 5.551115e-17 0.0984252 0.1152952 5.551115e-17 0.07874016 0.1152952 0.001968503 0.09645669 0.1377953 0.01771653 0.09645669 0.1377953 0.01968504 0.0984252 0.1152952 0.01771653 0.08070866 0.1377953 0.01968504 0.07874016 0.1152952 0.01968504 0.0984252 0.1152952 0.01771653 0.08070866 0.1377953 0.01968504 0.07874016 0.1152952 0.01771653 0.09645669 0.1377953 0.01771653 0.09645669 0.1377953 0.01771653 0.08070866 0.1377953 0.001968503 0.09645669 0.1377953 0.001968503 0.08070866 0.1377953 0.01771653 0.08070866 0.1377953 0.001968503 0.09645669 0.1377953 0.001968503 0.08070866 0.1377953 0.01771653 0.09645669 0.1377953 0.01771653 0.09645669 0.1377953 0.001968503 0.09645669 0.1377953 0.01968504 0.0984252 0.1152952 5.551115e-17 0.0984252 0.1152952 0.001968503 0.09645669 0.1377953 0.01968504 0.0984252 0.1152952 5.551115e-17 0.0984252 0.1152952 0.01771653 0.09645669 0.1377953</float_array>
                    <technique_common>
                        <accessor count="72" source="#ID43" stride="3">
                            <param name="X" type="float"/>
                            <param name="Y" type="float"/>
                            <param name="Z" type="float"/>
                        </accessor>
                    </technique_common>
                </source>
                <source id="ID41">
                    <float_array id="ID44" count="216">-9.52024e-17 -1 1.710286e-15 -9.52024e-17 -1 1.710286e-15 -9.52024e-17 -1 1.710286e-15 -9.52024e-17 -1 1.710286e-15 9.52024e-17 1 -1.710286e-15 9.52024e-17 1 -1.710286e-15 9.52024e-17 1 -1.710286e-15 9.52024e-17 1 -1.710286e-15 -1 9.419888e-17 -6.245005e-17 -1 9.419888e-17 -6.245005e-17 -1 9.419888e-17 -6.245005e-17 -1 9.419888e-17 -6.245005e-17 1 -9.419888e-17 6.245005e-17 1 -9.419888e-17 6.245005e-17 1 -9.419888e-17 6.245005e-17 1 -9.419888e-17 6.245005e-17 1 -9.419888e-17 6.245005e-17 1 -9.419888e-17 6.245005e-17 1 -9.419888e-17 6.245005e-17 1 -9.419888e-17 6.245005e-17 -1 9.419888e-17 -6.245005e-17 -1 9.419888e-17 -6.245005e-17 -1 9.419888e-17 -6.245005e-17 -1 9.419888e-17 -6.245005e-17 -1.538911e-18 -0.9961947 0.08715565 -1.538911e-18 -0.9961947 0.08715565 -1.538911e-18 -0.9961947 0.08715565 -1.538911e-18 -0.9961947 0.08715565 1.538911e-18 0.9961947 -0.08715565 1.538911e-18 0.9961947 -0.08715565 1.538911e-18 0.9961947 -0.08715565 1.538911e-18 0.9961947 -0.08715565 9.52024e-17 1 -1.710286e-15 9.52024e-17 1 -1.710286e-15 9.52024e-17 1 -1.710286e-15 9.52024e-17 1 -1.710286e-15 -9.52024e-17 -1 1.710286e-15 -9.52024e-17 -1 1.710286e-15 -9.52024e-17 -1 1.710286e-15 -9.52024e-17 -1 1.710286e-15 -0.9961947 6.425401e-17 0.0871557 -0.9961947 6.425401e-17 0.0871557 -0.9961947 6.425401e-17 0.0871557 -0.9961947 6.425401e-17 0.0871557 0.9961947 -6.425401e-17 -0.0871557 0.9961947 -6.425401e-17 -0.0871557 0.9961947 -6.425401e-17 -0.0871557 0.9961947 -6.425401e-17 -0.0871557 0.9961947 5.843844e-17 0.08715573 0.9961947 5.843844e-17 0.08715573 0.9961947 5.843844e-17 0.08715573 0.9961947 5.843844e-17 0.08715573 -0.9961947 -5.843844e-17 -0.08715573 -0.9961947 -5.843844e-17 -0.08715573 -0.9961947 -5.843844e-17 -0.08715573 -0.9961947 -5.843844e-17 -0.08715573 -2.238267e-33 1.762479e-15 1 -2.238267e-33 1.762479e-15 1 -2.238267e-33 1.762479e-15 1 -2.238267e-33 1.762479e-15 1 2.238267e-33 -1.762479e-15 -1 2.238267e-33 -1.762479e-15 -1 2.238267e-33 -1.762479e-15 -1 2.238267e-33 -1.762479e-15 -1 -2.04336e-18 0.9961947 0.08715575 -2.04336e-18 0.9961947 0.08715575 -2.04336e-18 0.9961947 0.08715575 -2.04336e-18 0.9961947 0.08715575 2.04336e-18 -0.9961947 -0.08715575 2.04336e-18 -0.9961947 -0.08715575 2.04336e-18 -0.9961947 -0.08715575 2.04336e-18 -0.9961947 -0.08715575</float_array>
                    <technique_common>
                        <accessor count="72" source="#ID44" stride="3">
                            <param name="X" type="float"/>
                            <param name="Y" type="float"/>
                            <param name="Z" type="float"/>
                        </accessor>
                    </technique_common>
                </source>
                <vertices id="ID42">
                    <input semantic="POSITION" source="#ID40"/>
                    <input semantic="NORMAL" source="#ID41"/>
                </vertices>
                <triangles count="36" material="Material2">
                    <input offset="0" semantic="VERTEX" source="#ID42"/>
                    <p>0 1 2 3 2 1 4 5 6 5 4 7 8 9 10 11 10 9 12 13 14 13 12 15 16 17 18 19 18 17 20 21 22 21 20 23 24 25 26 27 26 25 28 29 30 29 28 31 32 33 34 35 34 33 36 37 38 37 36 39 40 41 42 43 42 41 44 45 46 45 44 47 48 49 50 51 50 49 52 53 54 53 52 55 56 57 58 59 58 57 60 61 62 61 60 63 64 65 66 67 66 65 68 69 70 69 68 71</p>
                </triangles>
            </mesh>
        </geometry>
        <geometry id="ID45">
            <mesh>
                <source id="ID46">
                    <float_array id="ID49" count="216">0.01968504 0.01968504 0.1152952 0.01968504 0.01968504 -0.04699097 0.01968504 2.775558e-17 0.1152952 0.01968504 -2.498002e-16 -0.04699097 0.01968504 0.01968504 -0.04699097 0.01968504 2.775558e-17 0.1152952 0.01968504 -2.498002e-16 -0.04699097 0.01968504 0.01968504 0.1152952 0.01968504 2.775558e-17 0.1152952 0.01968504 -2.498002e-16 -0.04699097 0 2.775558e-17 0.1152952 0 -2.498002e-16 -0.04699097 0.01968504 -2.498002e-16 -0.04699097 0 2.775558e-17 0.1152952 0 -2.498002e-16 -0.04699097 0.01968504 2.775558e-17 0.1152952 0.01968504 0.01968504 0.1152952 0 0.01968504 0.1152952 0.01968504 0.01968504 -0.04699097 0 0.01968504 -0.04699097 0 0.01968504 0.1152952 0.01968504 0.01968504 -0.04699097 0 0.01968504 -0.04699097 0.01968504 0.01968504 0.1152952 0.01771653 0.01771654 0.1377953 0.01968504 0.01968504 0.1152952 0.01771653 0.001968502 0.1377953 0.01968504 2.775558e-17 0.1152952 0.01968504 0.01968504 0.1152952 0.01771653 0.001968502 0.1377953 0.01968504 2.775558e-17 0.1152952 0.01771653 0.01771654 0.1377953 0.001968503 0.001968502 0.1377953 0.01771653 0.001968502 0.1377953 0 2.775558e-17 0.1152952 0.01968504 2.775558e-17 0.1152952 0.01771653 0.001968502 0.1377953 0 2.775558e-17 0.1152952 0.01968504 2.775558e-17 0.1152952 0.001968503 0.001968502 0.1377953 0 0.01968504 0.1152952 0 2.775558e-17 0.1152952 0 0.01968504 -0.04699097 0 -2.498002e-16 -0.04699097 0 2.775558e-17 0.1152952 0 0.01968504 -0.04699097 0 -2.498002e-16 -0.04699097 0 0.01968504 0.1152952 0.01771653 0.01771654 0.1377953 0.001968503 0.01771654 0.1377953 0.01968504 0.01968504 0.1152952 0 0.01968504 0.1152952 0.001968503 0.01771654 0.1377953 0.01968504 0.01968504 0.1152952 0 0.01968504 0.1152952 0.01771653 0.01771654 0.1377953 0.01771653 0.01771654 0.1377953 0.01771653 0.001968502 0.1377953 0.001968503 0.01771654 0.1377953 0.001968503 0.001968502 0.1377953 0.01771653 0.001968502 0.1377953 0.001968503 0.01771654 0.1377953 0.001968503 0.001968502 0.1377953 0.01771653 0.01771654 0.1377953 0.001968503 0.01771654 0.1377953 0.001968503 0.001968502 0.1377953 0 0.01968504 0.1152952 0 2.775558e-17 0.1152952 0.001968503 0.001968502 0.1377953 0 0.01968504 0.1152952 0 2.775558e-17 0.1152952 0.001968503 0.01771654 0.1377953</float_array>
                    <technique_common>
                        <accessor count="72" source="#ID49" stride="3">
                            <param name="X" type="float"/>
                            <param name="Y" type="float"/>
                            <param name="Z" type="float"/>
                        </accessor>
                    </technique_common>
                </source>
                <source id="ID47">
                    <float_array id="ID50" count="216">1 -9.419888e-17 6.245005e-17 1 -9.419888e-17 6.245005e-17 1 -9.419888e-17 6.245005e-17 1 -9.419888e-17 6.245005e-17 -1 9.419888e-17 -6.245005e-17 -1 9.419888e-17 -6.245005e-17 -1 9.419888e-17 -6.245005e-17 -1 9.419888e-17 -6.245005e-17 -9.52024e-17 -1 1.710286e-15 -9.52024e-17 -1 1.710286e-15 -9.52024e-17 -1 1.710286e-15 -9.52024e-17 -1 1.710286e-15 9.52024e-17 1 -1.710286e-15 9.52024e-17 1 -1.710286e-15 9.52024e-17 1 -1.710286e-15 9.52024e-17 1 -1.710286e-15 9.52024e-17 1 -1.710286e-15 9.52024e-17 1 -1.710286e-15 9.52024e-17 1 -1.710286e-15 9.52024e-17 1 -1.710286e-15 -9.52024e-17 -1 1.710286e-15 -9.52024e-17 -1 1.710286e-15 -9.52024e-17 -1 1.710286e-15 -9.52024e-17 -1 1.710286e-15 0.9961947 -5.999712e-17 0.08715573 0.9961947 -5.999712e-17 0.08715573 0.9961947 -5.999712e-17 0.08715573 0.9961947 -5.999712e-17 0.08715573 -0.9961947 5.999712e-17 -0.08715573 -0.9961947 5.999712e-17 -0.08715573 -0.9961947 5.999712e-17 -0.08715573 -0.9961947 5.999712e-17 -0.08715573 -1.538892e-18 -0.9961947 0.08715565 -1.538892e-18 -0.9961947 0.08715565 -1.538892e-18 -0.9961947 0.08715565 -1.538892e-18 -0.9961947 0.08715565 1.538892e-18 0.9961947 -0.08715565 1.538892e-18 0.9961947 -0.08715565 1.538892e-18 0.9961947 -0.08715565 1.538892e-18 0.9961947 -0.08715565 -1 9.419888e-17 -6.245005e-17 -1 9.419888e-17 -6.245005e-17 -1 9.419888e-17 -6.245005e-17 -1 9.419888e-17 -6.245005e-17 1 -9.419888e-17 6.245005e-17 1 -9.419888e-17 6.245005e-17 1 -9.419888e-17 6.245005e-17 1 -9.419888e-17 6.245005e-17 -1.538927e-18 0.9961947 0.08715565 -1.538927e-18 0.9961947 0.08715565 -1.538927e-18 0.9961947 0.08715565 -1.538927e-18 0.9961947 0.08715565 1.538927e-18 -0.9961947 -0.08715565 1.538927e-18 -0.9961947 -0.08715565 1.538927e-18 -0.9961947 -0.08715565 1.538927e-18 -0.9961947 -0.08715565 2.77329e-33 -1.762479e-15 1 2.77329e-33 -1.762479e-15 1 2.77329e-33 -1.762479e-15 1 2.77329e-33 -1.762479e-15 1 -2.77329e-33 1.762479e-15 -1 -2.77329e-33 1.762479e-15 -1 -2.77329e-33 1.762479e-15 -1 -2.77329e-33 1.762479e-15 -1 -0.9961947 -5.999706e-17 0.0871557 -0.9961947 -5.999706e-17 0.0871557 -0.9961947 -5.999706e-17 0.0871557 -0.9961947 -5.999706e-17 0.0871557 0.9961947 5.999706e-17 -0.0871557 0.9961947 5.999706e-17 -0.0871557 0.9961947 5.999706e-17 -0.0871557 0.9961947 5.999706e-17 -0.0871557</float_array>
                    <technique_common>
                        <accessor count="72" source="#ID50" stride="3">
                            <param name="X" type="float"/>
                            <param name="Y" type="float"/>
                            <param name="Z" type="float"/>
                        </accessor>
                    </technique_common>
                </source>
                <vertices id="ID48">
                    <input semantic="POSITION" source="#ID46"/>
                    <input semantic="NORMAL" source="#ID47"/>
                </vertices>
                <triangles count="36" material="Material2">
                    <input offset="0" semantic="VERTEX" source="#ID48"/>
                    <p>0 1 2 3 2 1 4 5 6 5 4 7 8 9 10 11 10 9 12 13 14 13 12 15 16 17 18 19 18 17 20 21 22 21 20 23 24 25 26 27 26 25 28 29 30 29 28 31 32 33 34 35 34 33 36 37 38 37 36 39 40 41 42 43 42 41 44 45 46 45 44 47 48 49 50 51 50 49 52 53 54 53 52 55 56 57 58 59 58 57 60 61 62 61 60 63 64 65 66 67 66 65 68 69 70 69 68 71</p>
                </triangles>
            </mesh>
        </geometry>
        <geometry id="ID51">
            <mesh>
                <source id="ID52">
                    <float_array id="ID55" count="216">0.001968503 0.1751969 0.1377953 0.001968503 0.1594488 0.1377953 5.551115e-17 0.1771654 0.1152952 5.551115e-17 0.1574803 0.1152952 0.001968503 0.1594488 0.1377953 5.551115e-17 0.1771654 0.1152952 5.551115e-17 0.1574803 0.1152952 0.001968503 0.1751969 0.1377953 0.01771653 0.1751969 0.1377953 0.001968503 0.1751969 0.1377953 0.01968504 0.1771654 0.1152952 5.551115e-17 0.1771654 0.1152952 0.001968503 0.1751969 0.1377953 0.01968504 0.1771654 0.1152952 5.551115e-17 0.1771654 0.1152952 0.01771653 0.1751969 0.1377953 5.551115e-17 0.1771654 0.1152952 5.551115e-17 0.1574803 0.1152952 0 0.1771654 -0.04699097 0 0.1574803 -0.04699097 5.551115e-17 0.1574803 0.1152952 0 0.1771654 -0.04699097 0 0.1574803 -0.04699097 5.551115e-17 0.1771654 0.1152952 0.001968503 0.1594488 0.1377953 0.01771653 0.1594488 0.1377953 5.551115e-17 0.1574803 0.1152952 0.01968504 0.1574803 0.1152952 0.01771653 0.1594488 0.1377953 5.551115e-17 0.1574803 0.1152952 0.01968504 0.1574803 0.1152952 0.001968503 0.1594488 0.1377953 0.01771653 0.1751969 0.1377953 0.01771653 0.1594488 0.1377953 0.001968503 0.1751969 0.1377953 0.001968503 0.1594488 0.1377953 0.01771653 0.1594488 0.1377953 0.001968503 0.1751969 0.1377953 0.001968503 0.1594488 0.1377953 0.01771653 0.1751969 0.1377953 0.01771653 0.1751969 0.1377953 0.01968504 0.1771654 0.1152952 0.01771653 0.1594488 0.1377953 0.01968504 0.1574803 0.1152952 0.01968504 0.1771654 0.1152952 0.01771653 0.1594488 0.1377953 0.01968504 0.1574803 0.1152952 0.01771653 0.1751969 0.1377953 0.01968504 0.1771654 0.1152952 5.551115e-17 0.1771654 0.1152952 0.01968504 0.1771654 -0.04699097 0 0.1771654 -0.04699097 5.551115e-17 0.1771654 0.1152952 0.01968504 0.1771654 -0.04699097 0 0.1771654 -0.04699097 0.01968504 0.1771654 0.1152952 0.01968504 0.1574803 0.1152952 0.01968504 0.1574803 -0.04699097 5.551115e-17 0.1574803 0.1152952 0 0.1574803 -0.04699097 0.01968504 0.1574803 -0.04699097 5.551115e-17 0.1574803 0.1152952 0 0.1574803 -0.04699097 0.01968504 0.1574803 0.1152952 0.01968504 0.1771654 0.1152952 0.01968504 0.1771654 -0.04699097 0.01968504 0.1574803 0.1152952 0.01968504 0.1574803 -0.04699097 0.01968504 0.1771654 -0.04699097 0.01968504 0.1574803 0.1152952 0.01968504 0.1574803 -0.04699097 0.01968504 0.1771654 0.1152952</float_array>
                    <technique_common>
                        <accessor count="72" source="#ID55" stride="3">
                            <param name="X" type="float"/>
                            <param name="Y" type="float"/>
                            <param name="Z" type="float"/>
                        </accessor>
                    </technique_common>
                </source>
                <source id="ID53">
                    <float_array id="ID56" count="216">-0.9961947 3.291623e-17 0.0871557 -0.9961947 3.291623e-17 0.0871557 -0.9961947 3.291623e-17 0.0871557 -0.9961947 3.291623e-17 0.0871557 0.9961947 -3.291623e-17 -0.0871557 0.9961947 -3.291623e-17 -0.0871557 0.9961947 -3.291623e-17 -0.0871557 0.9961947 -3.291623e-17 -0.0871557 -1.538909e-18 0.9961947 0.08715565 -1.538909e-18 0.9961947 0.08715565 -1.538909e-18 0.9961947 0.08715565 -1.538909e-18 0.9961947 0.08715565 1.538909e-18 -0.9961947 -0.08715565 1.538909e-18 -0.9961947 -0.08715565 1.538909e-18 -0.9961947 -0.08715565 1.538909e-18 -0.9961947 -0.08715565 -1 9.419888e-17 2.796072e-16 -1 9.419888e-17 2.796072e-16 -1 9.419888e-17 2.796072e-16 -1 9.419888e-17 2.796072e-16 1 -9.419888e-17 -2.796072e-16 1 -9.419888e-17 -2.796072e-16 1 -9.419888e-17 -2.796072e-16 1 -9.419888e-17 -2.796072e-16 -2.043392e-18 -0.9961947 0.08715575 -2.043392e-18 -0.9961947 0.08715575 -2.043392e-18 -0.9961947 0.08715575 -2.043392e-18 -0.9961947 0.08715575 2.043392e-18 0.9961947 -0.08715575 2.043392e-18 0.9961947 -0.08715575 2.043392e-18 0.9961947 -0.08715575 2.043392e-18 0.9961947 -0.08715575 1.258806e-37 -7.174648e-43 1 1.258806e-37 -7.174648e-43 1 1.258806e-37 -7.174648e-43 1 1.258806e-37 -7.174648e-43 1 -1.258806e-37 7.174648e-43 -1 -1.258806e-37 7.174648e-43 -1 -1.258806e-37 7.174648e-43 -1 -1.258806e-37 7.174648e-43 -1 0.9961947 3.873187e-17 0.08715573 0.9961947 3.873187e-17 0.08715573 0.9961947 3.873187e-17 0.08715573 0.9961947 3.873187e-17 0.08715573 -0.9961947 -3.873187e-17 -0.08715573 -0.9961947 -3.873187e-17 -0.08715573 -0.9961947 -3.873187e-17 -0.08715573 -0.9961947 -3.873187e-17 -0.08715573 1.505186e-15 1 -1.710286e-15 1.505186e-15 1 -1.710286e-15 1.505186e-15 1 -1.710286e-15 1.505186e-15 1 -1.710286e-15 -1.505186e-15 -1 1.710286e-15 -1.505186e-15 -1 1.710286e-15 -1.505186e-15 -1 1.710286e-15 -1.505186e-15 -1 1.710286e-15 -9.52024e-17 -1 1.710286e-15 -9.52024e-17 -1 1.710286e-15 -9.52024e-17 -1 1.710286e-15 -9.52024e-17 -1 1.710286e-15 9.52024e-17 1 -1.710286e-15 9.52024e-17 1 -1.710286e-15 9.52024e-17 1 -1.710286e-15 9.52024e-17 1 -1.710286e-15 1 1.315784e-15 -1.085786e-16 1 1.315784e-15 -1.085786e-16 1 1.315784e-15 -1.085786e-16 1 1.315784e-15 -1.085786e-16 -1 -1.315784e-15 1.085786e-16 -1 -1.315784e-15 1.085786e-16 -1 -1.315784e-15 1.085786e-16 -1 -1.315784e-15 1.085786e-16</float_array>
                    <technique_common>
                        <accessor count="72" source="#ID56" stride="3">
                            <param name="X" type="float"/>
                            <param name="Y" type="float"/>
                            <param name="Z" type="float"/>
                        </accessor>
                    </technique_common>
                </source>
                <vertices id="ID54">
                    <input semantic="POSITION" source="#ID52"/>
                    <input semantic="NORMAL" source="#ID53"/>
                </vertices>
                <triangles count="36" material="Material2">
                    <input offset="0" semantic="VERTEX" source="#ID54"/>
                    <p>0 1 2 3 2 1 4 5 6 5 4 7 8 9 10 11 10 9 12 13 14 13 12 15 16 17 18 19 18 17 20 21 22 21 20 23 24 25 26 27 26 25 28 29 30 29 28 31 32 33 34 35 34 33 36 37 38 37 36 39 40 41 42 43 42 41 44 45 46 45 44 47 48 49 50 51 50 49 52 53 54 53 52 55 56 57 58 59 58 57 60 61 62 61 60 63 64 65 66 67 66 65 68 69 70 69 68 71</p>
                </triangles>
            </mesh>
        </geometry>
        <geometry id="ID57">
            <mesh>
                <source id="ID58">
                    <float_array id="ID61" count="216">0.01968504 0.2559055 0.1152952 0 0.2559055 0.1152952 0.01968504 0.2559055 -0.04699097 0 0.2559055 -0.04699097 0 0.2559055 0.1152952 0.01968504 0.2559055 -0.04699097 0 0.2559055 -0.04699097 0.01968504 0.2559055 0.1152952 0.01968504 0.2559055 0.1152952 0.01968504 0.2559055 -0.04699097 0.01968504 0.2362205 0.1152952 0.01968504 0.2362205 -0.04699097 0.01968504 0.2559055 -0.04699097 0.01968504 0.2362205 0.1152952 0.01968504 0.2362205 -0.04699097 0.01968504 0.2559055 0.1152952 0 0.2559055 0.1152952 0 0.2362205 0.1152952 0 0.2559055 -0.04699097 0 0.2362205 -0.04699097 0 0.2362205 0.1152952 0 0.2559055 -0.04699097 0 0.2362205 -0.04699097 0 0.2559055 0.1152952 0.01771653 0.253937 0.1377953 0.001968503 0.253937 0.1377953 0.01968504 0.2559055 0.1152952 0 0.2559055 0.1152952 0.001968503 0.253937 0.1377953 0.01968504 0.2559055 0.1152952 0 0.2559055 0.1152952 0.01771653 0.253937 0.1377953 0.01968504 0.2362205 0.1152952 0.01968504 0.2362205 -0.04699097 0 0.2362205 0.1152952 0 0.2362205 -0.04699097 0.01968504 0.2362205 -0.04699097 0 0.2362205 0.1152952 0 0.2362205 -0.04699097 0.01968504 0.2362205 0.1152952 0.01771653 0.253937 0.1377953 0.01968504 0.2559055 0.1152952 0.01771653 0.238189 0.1377953 0.01968504 0.2362205 0.1152952 0.01968504 0.2559055 0.1152952 0.01771653 0.238189 0.1377953 0.01968504 0.2362205 0.1152952 0.01771653 0.253937 0.1377953 0.001968503 0.253937 0.1377953 0.001968503 0.238189 0.1377953 0 0.2559055 0.1152952 0 0.2362205 0.1152952 0.001968503 0.238189 0.1377953 0 0.2559055 0.1152952 0 0.2362205 0.1152952 0.001968503 0.253937 0.1377953 0.01771653 0.238189 0.1377953 0.001968503 0.238189 0.1377953 0.01771653 0.253937 0.1377953 0.001968503 0.253937 0.1377953 0.001968503 0.238189 0.1377953 0.01771653 0.253937 0.1377953 0.001968503 0.253937 0.1377953 0.01771653 0.238189 0.1377953 0.001968503 0.238189 0.1377953 0.01771653 0.238189 0.1377953 0 0.2362205 0.1152952 0.01968504 0.2362205 0.1152952 0.01771653 0.238189 0.1377953 0 0.2362205 0.1152952 0.01968504 0.2362205 0.1152952 0.001968503 0.238189 0.1377953</float_array>
                    <technique_common>
                        <accessor count="72" source="#ID61" stride="3">
                            <param name="X" type="float"/>
                            <param name="Y" type="float"/>
                            <param name="Z" type="float"/>
                        </accessor>
                    </technique_common>
                </source>
                <source id="ID59">
                    <float_array id="ID62" count="216">9.52024e-17 1 -2.052344e-15 9.52024e-17 1 -2.052344e-15 9.52024e-17 1 -2.052344e-15 9.52024e-17 1 -2.052344e-15 -9.52024e-17 -1 2.052344e-15 -9.52024e-17 -1 2.052344e-15 -9.52024e-17 -1 2.052344e-15 -9.52024e-17 -1 2.052344e-15 1 1.315784e-15 -1.085786e-16 1 1.315784e-15 -1.085786e-16 1 1.315784e-15 -1.085786e-16 1 1.315784e-15 -1.085786e-16 -1 -1.315784e-15 1.085786e-16 -1 -1.315784e-15 1.085786e-16 -1 -1.315784e-15 1.085786e-16 -1 -1.315784e-15 1.085786e-16 -1 9.419888e-17 -6.245005e-17 -1 9.419888e-17 -6.245005e-17 -1 9.419888e-17 -6.245005e-17 -1 9.419888e-17 -6.245005e-17 1 -9.419888e-17 6.245005e-17 1 -9.419888e-17 6.245005e-17 1 -9.419888e-17 6.245005e-17 1 -9.419888e-17 6.245005e-17 -1.538911e-18 0.9961947 0.08715565 -1.538911e-18 0.9961947 0.08715565 -1.538911e-18 0.9961947 0.08715565 -1.538911e-18 0.9961947 0.08715565 1.538911e-18 -0.9961947 -0.08715565 1.538911e-18 -0.9961947 -0.08715565 1.538911e-18 -0.9961947 -0.08715565 1.538911e-18 -0.9961947 -0.08715565 2.724764e-15 -1 1.710286e-15 2.724764e-15 -1 1.710286e-15 2.724764e-15 -1 1.710286e-15 2.724764e-15 -1 1.710286e-15 -2.724764e-15 1 -1.710286e-15 -2.724764e-15 1 -1.710286e-15 -2.724764e-15 1 -1.710286e-15 -2.724764e-15 1 -1.710286e-15 0.9961947 -6.319441e-17 0.08715573 0.9961947 -6.319441e-17 0.08715573 0.9961947 -6.319441e-17 0.08715573 0.9961947 -6.319441e-17 0.08715573 -0.9961947 6.319441e-17 -0.08715573 -0.9961947 6.319441e-17 -0.08715573 -0.9961947 6.319441e-17 -0.08715573 -0.9961947 6.319441e-17 -0.08715573 -0.9961947 -5.947707e-17 0.0871557 -0.9961947 -5.947707e-17 0.0871557 -0.9961947 -5.947707e-17 0.0871557 -0.9961947 -5.947707e-17 0.0871557 0.9961947 5.947707e-17 -0.0871557 0.9961947 5.947707e-17 -0.0871557 0.9961947 5.947707e-17 -0.0871557 0.9961947 5.947707e-17 -0.0871557 2.773289e-33 -1.762479e-15 1 2.773289e-33 -1.762479e-15 1 2.773289e-33 -1.762479e-15 1 2.773289e-33 -1.762479e-15 1 -2.773289e-33 1.762479e-15 -1 -2.773289e-33 1.762479e-15 -1 -2.773289e-33 1.762479e-15 -1 -2.773289e-33 1.762479e-15 -1 -1.538908e-18 -0.9961947 0.08715565 -1.538908e-18 -0.9961947 0.08715565 -1.538908e-18 -0.9961947 0.08715565 -1.538908e-18 -0.9961947 0.08715565 1.538908e-18 0.9961947 -0.08715565 1.538908e-18 0.9961947 -0.08715565 1.538908e-18 0.9961947 -0.08715565 1.538908e-18 0.9961947 -0.08715565</float_array>
                    <technique_common>
                        <accessor count="72" source="#ID62" stride="3">
                            <param name="X" type="float"/>
                            <param name="Y" type="float"/>
                            <param name="Z" type="float"/>
                        </accessor>
                    </technique_common>
                </source>
                <vertices id="ID60">
                    <input semantic="POSITION" source="#ID58"/>
                    <input semantic="NORMAL" source="#ID59"/>
                </vertices>
                <triangles count="36" material="Material2">
                    <input offset="0" semantic="VERTEX" source="#ID60"/>
                    <p>0 1 2 3 2 1 4 5 6 5 4 7 8 9 10 11 10 9 12 13 14 13 12 15 16 17 18 19 18 17 20 21 22 21 20 23 24 25 26 27 26 25 28 29 30 29 28 31 32 33 34 35 34 33 36 37 38 37 36 39 40 41 42 43 42 41 44 45 46 45 44 47 48 49 50 51 50 49 52 53 54 53 52 55 56 57 58 59 58 57 60 61 62 61 60 63 64 65 66 67 66 65 68 69 70 69 68 71</p>
                </triangles>
            </mesh>
        </geometry>
        <geometry id="ID63">
            <mesh>
                <source id="ID64">
                    <float_array id="ID69" count="24">0.01968504 0.2362205 -0.04699097 0.01968504 0.2559055 -0.04699097 0 0.2362205 -0.04699097 0 0.2559055 -0.04699097 0.01968504 0.2559055 -0.04699097 0 0.2362205 -0.04699097 0 0.2559055 -0.04699097 0.01968504 0.2362205 -0.04699097</float_array>
                    <technique_common>
                        <accessor count="8" source="#ID69" stride="3">
                            <param name="X" type="float"/>
                            <param name="Y" type="float"/>
                            <param name="Z" type="float"/>
                        </accessor>
                    </technique_common>
                </source>
                <source id="ID65">
                    <float_array id="ID70" count="24">6.244995e-17 1.183817e-41 -1 6.244995e-17 1.183817e-41 -1 6.244995e-17 1.183817e-41 -1 6.244995e-17 1.183817e-41 -1 -6.244995e-17 -1.183817e-41 1 -6.244995e-17 -1.183817e-41 1 -6.244995e-17 -1.183817e-41 1 -6.244995e-17 -1.183817e-41 1</float_array>
                    <technique_common>
                        <accessor count="8" source="#ID70" stride="3">
                            <param name="X" type="float"/>
                            <param name="Y" type="float"/>
                            <param name="Z" type="float"/>
                        </accessor>
                    </technique_common>
                </source>
                <vertices id="ID66">
                    <input semantic="POSITION" source="#ID64"/>
                    <input semantic="NORMAL" source="#ID65"/>
                </vertices>
                <triangles count="2" material="Material2">
                    <input offset="0" semantic="VERTEX" source="#ID66"/>
                    <p>0 1 2 3 2 1</p>
                </triangles>
                <triangles count="2" material="Material3">
                    <input offset="0" semantic="VERTEX" source="#ID66"/>
                    <p>4 5 6 5 4 7</p>
                </triangles>
            </mesh>
        </geometry>
        <geometry id="ID71">
            <mesh>
                <source id="ID72">
                    <float_array id="ID75" count="24">0.01968504 0.1574803 -0.04699097 0.01968504 0.1771654 -0.04699097 0 0.1574803 -0.04699097 0 0.1771654 -0.04699097 0.01968504 0.1771654 -0.04699097 0 0.1574803 -0.04699097 0 0.1771654 -0.04699097 0.01968504 0.1574803 -0.04699097</float_array>
                    <technique_common>
                        <accessor count="8" source="#ID75" stride="3">
                            <param name="X" type="float"/>
                            <param name="Y" type="float"/>
                            <param name="Z" type="float"/>
                        </accessor>
                    </technique_common>
                </source>
                <source id="ID73">
                    <float_array id="ID76" count="24">6.244995e-17 1.183817e-41 -1 6.244995e-17 1.183817e-41 -1 6.244995e-17 1.183817e-41 -1 6.244995e-17 1.183817e-41 -1 -6.244995e-17 -1.183817e-41 1 -6.244995e-17 -1.183817e-41 1 -6.244995e-17 -1.183817e-41 1 -6.244995e-17 -1.183817e-41 1</float_array>
                    <technique_common>
                        <accessor count="8" source="#ID76" stride="3">
                            <param name="X" type="float"/>
                            <param name="Y" type="float"/>
                            <param name="Z" type="float"/>
                        </accessor>
                    </technique_common>
                </source>
                <vertices id="ID74">
                    <input semantic="POSITION" source="#ID72"/>
                    <input semantic="NORMAL" source="#ID73"/>
                </vertices>
                <triangles count="2" material="Material2">
                    <input offset="0" semantic="VERTEX" source="#ID74"/>
                    <p>0 1 2 3 2 1</p>
                </triangles>
                <triangles count="2" material="Material3">
                    <input offset="0" semantic="VERTEX" source="#ID74"/>
                    <p>4 5 6 5 4 7</p>
                </triangles>
            </mesh>
        </geometry>
        <geometry id="ID77">
            <mesh>
                <source id="ID78">
                    <float_array id="ID81" count="24">0.01968504 0.07874016 -0.04699097 0.01968504 0.0984252 -0.04699097 5.551115e-17 0.07874016 -0.04699097 5.551115e-17 0.0984252 -0.04699097 0.01968504 0.0984252 -0.04699097 5.551115e-17 0.07874016 -0.04699097 5.551115e-17 0.0984252 -0.04699097 0.01968504 0.07874016 -0.04699097</float_array>
                    <technique_common>
                        <accessor count="8" source="#ID81" stride="3">
                            <param name="X" type="float"/>
                            <param name="Y" type="float"/>
                            <param name="Z" type="float"/>
                        </accessor>
                    </technique_common>
                </source>
                <source id="ID79">
                    <float_array id="ID82" count="24">6.244995e-17 1.183817e-41 -1 6.244995e-17 1.183817e-41 -1 6.244995e-17 1.183817e-41 -1 6.244995e-17 1.183817e-41 -1 -6.244995e-17 -1.183817e-41 1 -6.244995e-17 -1.183817e-41 1 -6.244995e-17 -1.183817e-41 1 -6.244995e-17 -1.183817e-41 1</float_array>
                    <technique_common>
                        <accessor count="8" source="#ID82" stride="3">
                            <param name="X" type="float"/>
                            <param name="Y" type="float"/>
                            <param name="Z" type="float"/>
                        </accessor>
                    </technique_common>
                </source>
                <vertices id="ID80">
                    <input semantic="POSITION" source="#ID78"/>
                    <input semantic="NORMAL" source="#ID79"/>
                </vertices>
                <triangles count="2" material="Material2">
                    <input offset="0" semantic="VERTEX" source="#ID80"/>
                    <p>0 1 2 3 2 1</p>
                </triangles>
                <triangles count="2" material="Material3">
                    <input offset="0" semantic="VERTEX" source="#ID80"/>
                    <p>4 5 6 5 4 7</p>
                </triangles>
            </mesh>
        </geometry>
        <geometry id="ID83">
            <mesh>
                <source id="ID84">
                    <float_array id="ID87" count="24">0.01968504 -2.498002e-16 -0.04699097 0.01968504 0.01968504 -0.04699097 0 -2.498002e-16 -0.04699097 0 0.01968504 -0.04699097 0.01968504 0.01968504 -0.04699097 0 -2.498002e-16 -0.04699097 0 0.01968504 -0.04699097 0.01968504 -2.498002e-16 -0.04699097</float_array>
                    <technique_common>
                        <accessor count="8" source="#ID87" stride="3">
                            <param name="X" type="float"/>
                            <param name="Y" type="float"/>
                            <param name="Z" type="float"/>
                        </accessor>
                    </technique_common>
                </source>
                <source id="ID85">
                    <float_array id="ID88" count="24">6.244995e-17 1.183817e-41 -1 6.244995e-17 1.183817e-41 -1 6.244995e-17 1.183817e-41 -1 6.244995e-17 1.183817e-41 -1 -6.244995e-17 -1.183817e-41 1 -6.244995e-17 -1.183817e-41 1 -6.244995e-17 -1.183817e-41 1 -6.244995e-17 -1.183817e-41 1</float_array>
                    <technique_common>
                        <accessor count="8" source="#ID88" stride="3">
                            <param name="X" type="float"/>
                            <param name="Y" type="float"/>
                            <param name="Z" type="float"/>
                        </accessor>
                    </technique_common>
                </source>
                <vertices id="ID86">
                    <input semantic="POSITION" source="#ID84"/>
                    <input semantic="NORMAL" source="#ID85"/>
                </vertices>
                <triangles count="2" material="Material2">
                    <input offset="0" semantic="VERTEX" source="#ID86"/>
                    <p>0 1 2 3 2 1</p>
                </triangles>
                <triangles count="2" material="Material3">
                    <input offset="0" semantic="VERTEX" source="#ID86"/>
                    <p>4 5 6 5 4 7</p>
                </triangles>
            </mesh>
        </geometry>
        <geometry id="ID93">
            <mesh>
                <source id="ID94">
                    <float_array id="ID97" count="216">-64.28571 -392.8571 -71.42857 -64.28571 -464.2857 -418.3568 -64.28571 -464.2857 -71.42857 -64.28571 -392.8571 -418.3568 -64.28571 -392.8571 -418.3568 -64.28571 -392.8571 -71.42857 -64.28571 -464.2857 -418.3568 -64.28571 -464.2857 -71.42857 -64.28571 -392.8571 -71.42857 7.142857 -392.8571 -418.3568 -64.28571 -392.8571 -418.3568 7.142857 -392.8571 -71.42857 7.142857 -392.8571 -71.42857 -64.28571 -392.8571 -71.42857 7.142857 -392.8571 -418.3568 -64.28571 -392.8571 -418.3568 -64.28571 -392.8571 -418.3568 -57.14286 -457.1429 -500 -64.28571 -464.2857 -418.3568 -57.14286 -400 -500 -57.14286 -400 -500 -64.28571 -392.8571 -418.3568 -57.14286 -457.1429 -500 -64.28571 -464.2857 -418.3568 7.142857 -464.2857 -71.42857 -64.28571 -464.2857 -418.3568 7.142857 -464.2857 -418.3568 -64.28571 -464.2857 -71.42857 -64.28571 -464.2857 -71.42857 7.142857 -464.2857 -71.42857 -64.28571 -464.2857 -418.3568 7.142857 -464.2857 -418.3568 7.142857 -392.8571 -418.3568 7.142857 -464.2857 -71.42857 7.142857 -464.2857 -418.3568 7.142857 -392.8571 -71.42857 7.142857 -392.8571 -71.42857 7.142857 -392.8571 -418.3568 7.142857 -464.2857 -71.42857 7.142857 -464.2857 -418.3568 -64.28571 -392.8571 -418.3568 0 -400 -500 -57.14286 -400 -500 7.142857 -392.8571 -418.3568 7.142857 -392.8571 -418.3568 -64.28571 -392.8571 -418.3568 0 -400 -500 -57.14286 -400 -500 7.142857 -464.2857 -418.3568 -57.14286 -457.1429 -500 0 -457.1429 -500 -64.28571 -464.2857 -418.3568 -64.28571 -464.2857 -418.3568 7.142857 -464.2857 -418.3568 -57.14286 -457.1429 -500 0 -457.1429 -500 0 -400 -500 -57.14286 -457.1429 -500 -57.14286 -400 -500 0 -457.1429 -500 0 -457.1429 -500 0 -400 -500 -57.14286 -457.1429 -500 -57.14286 -400 -500 0 -457.1429 -500 7.142857 -392.8571 -418.3568 7.142857 -464.2857 -418.3568 0 -400 -500 0 -400 -500 0 -457.1429 -500 7.142857 -392.8571 -418.3568 7.142857 -464.2857 -418.3568</float_array>
                    <technique_common>
                        <accessor count="72" source="#ID97" stride="3">
                            <param name="X" type="float"/>
                            <param name="Y" type="float"/>
                            <param name="Z" type="float"/>
                        </accessor>
                    </technique_common>
                </source>
                <source id="ID95">
                    <float_array id="ID98" count="216">-1 0 0 -1 0 0 -1 0 0 -1 0 0 1 -0 -0 1 -0 -0 1 -0 -0 1 -0 -0 -0 1 -0 -0 1 -0 -0 1 -0 -0 1 -0 0 -1 0 0 -1 0 0 -1 0 0 -1 0 -0.9961947 -8.52672e-17 -0.0871557 -0.9961947 -8.52672e-17 -0.0871557 -0.9961947 -8.52672e-17 -0.0871557 -0.9961947 -8.52672e-17 -0.0871557 0.9961947 8.52672e-17 0.0871557 0.9961947 8.52672e-17 0.0871557 0.9961947 8.52672e-17 0.0871557 0.9961947 8.52672e-17 0.0871557 0 -1 0 0 -1 0 0 -1 0 0 -1 0 -0 1 -0 -0 1 -0 -0 1 -0 -0 1 -0 1 -0 -0 1 -0 -0 1 -0 -0 1 -0 -0 -1 0 0 -1 0 0 -1 0 0 -1 0 0 -1.521228e-18 0.9961947 -0.08715565 -1.521228e-18 0.9961947 -0.08715565 -1.521228e-18 0.9961947 -0.08715565 -1.521228e-18 0.9961947 -0.08715565 1.521228e-18 -0.9961947 0.08715565 1.521228e-18 -0.9961947 0.08715565 1.521228e-18 -0.9961947 0.08715565 1.521228e-18 -0.9961947 0.08715565 1.862566e-18 -0.9961947 -0.08715565 1.862566e-18 -0.9961947 -0.08715565 1.862566e-18 -0.9961947 -0.08715565 1.862566e-18 -0.9961947 -0.08715565 -1.862566e-18 0.9961947 0.08715565 -1.862566e-18 0.9961947 0.08715565 -1.862566e-18 0.9961947 0.08715565 -1.862566e-18 0.9961947 0.08715565 0 0 -1 0 0 -1 0 0 -1 0 0 -1 -0 -0 1 -0 -0 1 -0 -0 1 -0 -0 1 0.9961947 -8.526721e-17 -0.08715573 0.9961947 -8.526721e-17 -0.08715573 0.9961947 -8.526721e-17 -0.08715573 0.9961947 -8.526721e-17 -0.08715573 -0.9961947 8.526721e-17 0.08715573 -0.9961947 8.526721e-17 0.08715573 -0.9961947 8.526721e-17 0.08715573 -0.9961947 8.526721e-17 0.08715573</float_array>
                    <technique_common>
                        <accessor count="72" source="#ID98" stride="3">
                            <param name="X" type="float"/>
                            <param name="Y" type="float"/>
                            <param name="Z" type="float"/>
                        </accessor>
                    </technique_common>
                </source>
                <vertices id="ID96">
                    <input semantic="POSITION" source="#ID94"/>
                    <input semantic="NORMAL" source="#ID95"/>
                </vertices>
                <triangles count="36" material="Material2">
                    <input offset="0" semantic="VERTEX" source="#ID96"/>
                    <p>0 1 2 1 0 3 4 5 6 7 6 5 8 9 10 9 8 11 12 13 14 15 14 13 16 17 18 17 16 19 20 21 22 23 22 21 24 25 26 25 24 27 28 29 30 31 30 29 32 33 34 33 32 35 36 37 38 39 38 37 40 41 42 41 40 43 44 45 46 47 46 45 48 49 50 49 48 51 52 53 54 55 54 53 56 57 58 57 56 59 60 61 62 63 62 61 64 65 66 65 64 67 68 69 70 71 70 69</p>
                </triangles>
            </mesh>
        </geometry>
        <geometry id="ID99">
            <mesh>
                <source id="ID100">
                    <float_array id="ID103" count="216">-64.28571 -107.1429 -71.42857 -64.28571 -178.5714 -418.3568 -64.28571 -178.5714 -71.42857 -64.28571 -107.1429 -418.3568 -64.28571 -107.1429 -418.3568 -64.28571 -107.1429 -71.42857 -64.28571 -178.5714 -418.3568 -64.28571 -178.5714 -71.42857 -64.28571 -107.1429 -71.42857 7.142857 -107.1429 -418.3568 -64.28571 -107.1429 -418.3568 7.142857 -107.1429 -71.42857 7.142857 -107.1429 -71.42857 -64.28571 -107.1429 -71.42857 7.142857 -107.1429 -418.3568 -64.28571 -107.1429 -418.3568 -64.28571 -107.1429 -418.3568 -57.14286 -171.4286 -500 -64.28571 -178.5714 -418.3568 -57.14286 -114.2857 -500 -57.14286 -114.2857 -500 -64.28571 -107.1429 -418.3568 -57.14286 -171.4286 -500 -64.28571 -178.5714 -418.3568 7.142857 -178.5714 -71.42857 -64.28571 -178.5714 -418.3568 7.142857 -178.5714 -418.3568 -64.28571 -178.5714 -71.42857 -64.28571 -178.5714 -71.42857 7.142857 -178.5714 -71.42857 -64.28571 -178.5714 -418.3568 7.142857 -178.5714 -418.3568 7.142857 -107.1429 -418.3568 7.142857 -178.5714 -71.42857 7.142857 -178.5714 -418.3568 7.142857 -107.1429 -71.42857 7.142857 -107.1429 -71.42857 7.142857 -107.1429 -418.3568 7.142857 -178.5714 -71.42857 7.142857 -178.5714 -418.3568 -64.28571 -107.1429 -418.3568 0 -114.2857 -500 -57.14286 -114.2857 -500 7.142857 -107.1429 -418.3568 7.142857 -107.1429 -418.3568 -64.28571 -107.1429 -418.3568 0 -114.2857 -500 -57.14286 -114.2857 -500 7.142857 -178.5714 -418.3568 -57.14286 -171.4286 -500 0 -171.4286 -500 -64.28571 -178.5714 -418.3568 -64.28571 -178.5714 -418.3568 7.142857 -178.5714 -418.3568 -57.14286 -171.4286 -500 0 -171.4286 -500 0 -114.2857 -500 -57.14286 -171.4286 -500 -57.14286 -114.2857 -500 0 -171.4286 -500 0 -171.4286 -500 0 -114.2857 -500 -57.14286 -171.4286 -500 -57.14286 -114.2857 -500 0 -171.4286 -500 7.142857 -107.1429 -418.3568 7.142857 -178.5714 -418.3568 0 -114.2857 -500 0 -114.2857 -500 0 -171.4286 -500 7.142857 -107.1429 -418.3568 7.142857 -178.5714 -418.3568</float_array>
                    <technique_common>
                        <accessor count="72" source="#ID103" stride="3">
                            <param name="X" type="float"/>
                            <param name="Y" type="float"/>
                            <param name="Z" type="float"/>
                        </accessor>
                    </technique_common>
                </source>
                <source id="ID101">
                    <float_array id="ID104" count="216">-1 0 0 -1 0 0 -1 0 0 -1 0 0 1 -0 -0 1 -0 -0 1 -0 -0 1 -0 -0 -0 1 -0 -0 1 -0 -0 1 -0 -0 1 -0 0 -1 0 0 -1 0 0 -1 0 0 -1 0 -0.9961947 -2.449283e-18 -0.0871557 -0.9961947 -2.449283e-18 -0.0871557 -0.9961947 -2.449283e-18 -0.0871557 -0.9961947 -2.449283e-18 -0.0871557 0.9961947 2.449283e-18 0.0871557 0.9961947 2.449283e-18 0.0871557 0.9961947 2.449283e-18 0.0871557 0.9961947 2.449283e-18 0.0871557 0 -1 0 0 -1 0 0 -1 0 0 -1 0 -0 1 -0 -0 1 -0 -0 1 -0 -0 1 -0 1 -0 -0 1 -0 -0 1 -0 -0 1 -0 -0 -1 0 0 -1 0 0 -1 0 0 -1 0 0 2.518643e-18 0.9961947 -0.08715575 2.518643e-18 0.9961947 -0.08715575 2.518643e-18 0.9961947 -0.08715575 2.518643e-18 0.9961947 -0.08715575 -2.518643e-18 -0.9961947 0.08715575 -2.518643e-18 -0.9961947 0.08715575 -2.518643e-18 -0.9961947 0.08715575 -2.518643e-18 -0.9961947 0.08715575 -2.874117e-18 -0.9961947 -0.08715565 -2.874117e-18 -0.9961947 -0.08715565 -2.874117e-18 -0.9961947 -0.08715565 -2.874117e-18 -0.9961947 -0.08715565 2.874117e-18 0.9961947 0.08715565 2.874117e-18 0.9961947 0.08715565 2.874117e-18 0.9961947 0.08715565 2.874117e-18 0.9961947 0.08715565 0 0 -1 0 0 -1 0 0 -1 0 0 -1 -0 -0 1 -0 -0 1 -0 -0 1 -0 -0 1 0.9961947 1.59056e-18 -0.08715573 0.9961947 1.59056e-18 -0.08715573 0.9961947 1.59056e-18 -0.08715573 0.9961947 1.59056e-18 -0.08715573 -0.9961947 -1.59056e-18 0.08715573 -0.9961947 -1.59056e-18 0.08715573 -0.9961947 -1.59056e-18 0.08715573 -0.9961947 -1.59056e-18 0.08715573</float_array>
                    <technique_common>
                        <accessor count="72" source="#ID104" stride="3">
                            <param name="X" type="float"/>
                            <param name="Y" type="float"/>
                            <param name="Z" type="float"/>
                        </accessor>
                    </technique_common>
                </source>
                <vertices id="ID102">
                    <input semantic="POSITION" source="#ID100"/>
                    <input semantic="NORMAL" source="#ID101"/>
                </vertices>
                <triangles count="36" material="Material2">
                    <input offset="0" semantic="VERTEX" source="#ID102"/>
                    <p>0 1 2 1 0 3 4 5 6 7 6 5 8 9 10 9 8 11 12 13 14 15 14 13 16 17 18 17 16 19 20 21 22 23 22 21 24 25 26 25 24 27 28 29 30 31 30 29 32 33 34 33 32 35 36 37 38 39 38 37 40 41 42 41 40 43 44 45 46 47 46 45 48 49 50 49 48 51 52 53 54 55 54 53 56 57 58 57 56 59 60 61 62 63 62 61 64 65 66 65 64 67 68 69 70 71 70 69</p>
                </triangles>
            </mesh>
        </geometry>
        <geometry id="ID105">
            <mesh>
                <source id="ID106">
                    <float_array id="ID109" count="216">-64.28571 178.5714 -71.42857 -64.28571 107.1429 -418.3568 -64.28571 107.1429 -71.42857 -64.28571 178.5714 -418.3568 -64.28571 178.5714 -418.3568 -64.28571 178.5714 -71.42857 -64.28571 107.1429 -418.3568 -64.28571 107.1429 -71.42857 -64.28571 178.5714 -71.42857 7.142857 178.5714 -418.3568 -64.28571 178.5714 -418.3568 7.142857 178.5714 -71.42857 7.142857 178.5714 -71.42857 -64.28571 178.5714 -71.42857 7.142857 178.5714 -418.3568 -64.28571 178.5714 -418.3568 -64.28571 178.5714 -418.3568 -57.14286 114.2857 -500 -64.28571 107.1429 -418.3568 -57.14286 171.4286 -500 -57.14286 171.4286 -500 -64.28571 178.5714 -418.3568 -57.14286 114.2857 -500 -64.28571 107.1429 -418.3568 7.142857 107.1429 -71.42857 -64.28571 107.1429 -418.3568 7.142857 107.1429 -418.3568 -64.28571 107.1429 -71.42857 -64.28571 107.1429 -71.42857 7.142857 107.1429 -71.42857 -64.28571 107.1429 -418.3568 7.142857 107.1429 -418.3568 7.142857 178.5714 -418.3568 7.142857 107.1429 -71.42857 7.142857 107.1429 -418.3568 7.142857 178.5714 -71.42857 7.142857 178.5714 -71.42857 7.142857 178.5714 -418.3568 7.142857 107.1429 -71.42857 7.142857 107.1429 -418.3568 -64.28571 178.5714 -418.3568 0 171.4286 -500 -57.14286 171.4286 -500 7.142857 178.5714 -418.3568 7.142857 178.5714 -418.3568 -64.28571 178.5714 -418.3568 0 171.4286 -500 -57.14286 171.4286 -500 7.142857 107.1429 -418.3568 -57.14286 114.2857 -500 0 114.2857 -500 -64.28571 107.1429 -418.3568 -64.28571 107.1429 -418.3568 7.142857 107.1429 -418.3568 -57.14286 114.2857 -500 0 114.2857 -500 0 171.4286 -500 -57.14286 114.2857 -500 -57.14286 171.4286 -500 0 114.2857 -500 0 114.2857 -500 0 171.4286 -500 -57.14286 114.2857 -500 -57.14286 171.4286 -500 0 114.2857 -500 7.142857 178.5714 -418.3568 7.142857 107.1429 -418.3568 0 171.4286 -500 0 171.4286 -500 0 114.2857 -500 7.142857 178.5714 -418.3568 7.142857 107.1429 -418.3568</float_array>
                    <technique_common>
                        <accessor count="72" source="#ID109" stride="3">
                            <param name="X" type="float"/>
                            <param name="Y" type="float"/>
                            <param name="Z" type="float"/>
                        </accessor>
                    </technique_common>
                </source>
                <source id="ID107">
                    <float_array id="ID110" count="216">-1 0 0 -1 0 0 -1 0 0 -1 0 0 1 -0 -0 1 -0 -0 1 -0 -0 1 -0 -0 -0 1 -0 -0 1 -0 -0 1 -0 -0 1 -0 0 -1 0 0 -1 0 0 -1 0 0 -1 0 -0.9961947 -8.412772e-17 -0.0871557 -0.9961947 -8.412772e-17 -0.0871557 -0.9961947 -8.412772e-17 -0.0871557 -0.9961947 -8.412772e-17 -0.0871557 0.9961947 8.412772e-17 0.0871557 0.9961947 8.412772e-17 0.0871557 0.9961947 8.412772e-17 0.0871557 0.9961947 8.412772e-17 0.0871557 0 -1 0 0 -1 0 0 -1 0 0 -1 0 -0 1 -0 -0 1 -0 -0 1 -0 -0 1 -0 1 -0 -0 1 -0 -0 1 -0 -0 1 -0 -0 -1 0 0 -1 0 0 -1 0 0 -1 0 0 -1.521243e-18 0.9961947 -0.08715565 -1.521243e-18 0.9961947 -0.08715565 -1.521243e-18 0.9961947 -0.08715565 -1.521243e-18 0.9961947 -0.08715565 1.521243e-18 -0.9961947 0.08715565 1.521243e-18 -0.9961947 0.08715565 1.521243e-18 -0.9961947 0.08715565 1.521243e-18 -0.9961947 0.08715565 -5.601828e-18 -0.9961947 -0.08715575 -5.601828e-18 -0.9961947 -0.08715575 -5.601828e-18 -0.9961947 -0.08715575 -5.601828e-18 -0.9961947 -0.08715575 5.601828e-18 0.9961947 0.08715575 5.601828e-18 0.9961947 0.08715575 5.601828e-18 0.9961947 0.08715575 5.601828e-18 0.9961947 0.08715575 0 0 -1 0 0 -1 0 0 -1 0 0 -1 -0 -0 1 -0 -0 1 -0 -0 1 -0 -0 1 0.9961947 -8.140007e-17 -0.08715573 0.9961947 -8.140007e-17 -0.08715573 0.9961947 -8.140007e-17 -0.08715573 0.9961947 -8.140007e-17 -0.08715573 -0.9961947 8.140007e-17 0.08715573 -0.9961947 8.140007e-17 0.08715573 -0.9961947 8.140007e-17 0.08715573 -0.9961947 8.140007e-17 0.08715573</float_array>
                    <technique_common>
                        <accessor count="72" source="#ID110" stride="3">
                            <param name="X" type="float"/>
                            <param name="Y" type="float"/>
                            <param name="Z" type="float"/>
                        </accessor>
                    </technique_common>
                </source>
                <vertices id="ID108">
                    <input semantic="POSITION" source="#ID106"/>
                    <input semantic="NORMAL" source="#ID107"/>
                </vertices>
                <triangles count="36" material="Material2">
                    <input offset="0" semantic="VERTEX" source="#ID108"/>
                    <p>0 1 2 1 0 3 4 5 6 7 6 5 8 9 10 9 8 11 12 13 14 15 14 13 16 17 18 17 16 19 20 21 22 23 22 21 24 25 26 25 24 27 28 29 30 31 30 29 32 33 34 33 32 35 36 37 38 39 38 37 40 41 42 41 40 43 44 45 46 47 46 45 48 49 50 49 48 51 52 53 54 55 54 53 56 57 58 57 56 59 60 61 62 63 62 61 64 65 66 65 64 67 68 69 70 71 70 69</p>
                </triangles>
            </mesh>
        </geometry>
        <geometry id="ID111">
            <mesh>
                <source id="ID112">
                    <float_array id="ID115" count="216">-64.28571 464.2857 -418.3568 -57.14286 400 -500 -64.28571 392.8571 -418.3568 -57.14286 457.1429 -500 -57.14286 457.1429 -500 -64.28571 464.2857 -418.3568 -57.14286 400 -500 -64.28571 392.8571 -418.3568 -64.28571 464.2857 -71.42857 -64.28571 392.8571 -418.3568 -64.28571 392.8571 -71.42857 -64.28571 464.2857 -418.3568 -64.28571 464.2857 -418.3568 -64.28571 464.2857 -71.42857 -64.28571 392.8571 -418.3568 -64.28571 392.8571 -71.42857 -64.28571 464.2857 -418.3568 0 457.1429 -500 -57.14286 457.1429 -500 7.142857 464.2857 -418.3568 7.142857 464.2857 -418.3568 -64.28571 464.2857 -418.3568 0 457.1429 -500 -57.14286 457.1429 -500 0 457.1429 -500 -57.14286 400 -500 -57.14286 457.1429 -500 0 400 -500 0 400 -500 0 457.1429 -500 -57.14286 400 -500 -57.14286 457.1429 -500 7.142857 392.8571 -418.3568 -57.14286 400 -500 0 400 -500 -64.28571 392.8571 -418.3568 -64.28571 392.8571 -418.3568 7.142857 392.8571 -418.3568 -57.14286 400 -500 0 400 -500 7.142857 392.8571 -71.42857 -64.28571 392.8571 -418.3568 7.142857 392.8571 -418.3568 -64.28571 392.8571 -71.42857 -64.28571 392.8571 -71.42857 7.142857 392.8571 -71.42857 -64.28571 392.8571 -418.3568 7.142857 392.8571 -418.3568 -64.28571 464.2857 -71.42857 7.142857 464.2857 -418.3568 -64.28571 464.2857 -418.3568 7.142857 464.2857 -71.42857 7.142857 464.2857 -71.42857 -64.28571 464.2857 -71.42857 7.142857 464.2857 -418.3568 -64.28571 464.2857 -418.3568 0 400 -500 7.142857 464.2857 -418.3568 7.142857 392.8571 -418.3568 0 457.1429 -500 0 457.1429 -500 0 400 -500 7.142857 464.2857 -418.3568 7.142857 392.8571 -418.3568 7.142857 464.2857 -418.3568 7.142857 392.8571 -71.42857 7.142857 392.8571 -418.3568 7.142857 464.2857 -71.42857 7.142857 464.2857 -71.42857 7.142857 464.2857 -418.3568 7.142857 392.8571 -71.42857 7.142857 392.8571 -418.3568</float_array>
                    <technique_common>
                        <accessor count="72" source="#ID115" stride="3">
                            <param name="X" type="float"/>
                            <param name="Y" type="float"/>
                            <param name="Z" type="float"/>
                        </accessor>
                    </technique_common>
                </source>
                <source id="ID113">
                    <float_array id="ID116" count="216">-0.9961947 1.576402e-16 -0.0871557 -0.9961947 1.576402e-16 -0.0871557 -0.9961947 1.576402e-16 -0.0871557 -0.9961947 1.576402e-16 -0.0871557 0.9961947 -1.576402e-16 0.0871557 0.9961947 -1.576402e-16 0.0871557 0.9961947 -1.576402e-16 0.0871557 0.9961947 -1.576402e-16 0.0871557 -1 0 0 -1 0 0 -1 0 0 -1 0 0 1 -0 -0 1 -0 -0 1 -0 -0 1 -0 -0 -2.874117e-18 0.9961947 -0.08715565 -2.874117e-18 0.9961947 -0.08715565 -2.874117e-18 0.9961947 -0.08715565 -2.874117e-18 0.9961947 -0.08715565 2.874117e-18 -0.9961947 0.08715565 2.874117e-18 -0.9961947 0.08715565 2.874117e-18 -0.9961947 0.08715565 2.874117e-18 -0.9961947 0.08715565 0 1.989519e-15 -1 0 1.989519e-15 -1 0 1.989519e-15 -1 0 1.989519e-15 -1 -0 -1.989519e-15 1 -0 -1.989519e-15 1 -0 -1.989519e-15 1 -0 -1.989519e-15 1 -2.874189e-18 -0.9961947 -0.08715565 -2.874189e-18 -0.9961947 -0.08715565 -2.874189e-18 -0.9961947 -0.08715565 -2.874189e-18 -0.9961947 -0.08715565 2.874189e-18 0.9961947 0.08715565 2.874189e-18 0.9961947 0.08715565 2.874189e-18 0.9961947 0.08715565 2.874189e-18 0.9961947 0.08715565 0 -1 0 0 -1 0 0 -1 0 0 -1 0 -0 1 -0 -0 1 -0 -0 1 -0 -0 1 -0 -0 1 -0 -0 1 -0 -0 1 -0 -0 1 -0 0 -1 0 0 -1 0 0 -1 0 0 -1 0 0.9961947 1.542565e-16 -0.08715573 0.9961947 1.542565e-16 -0.08715573 0.9961947 1.542565e-16 -0.08715573 0.9961947 1.542565e-16 -0.08715573 -0.9961947 -1.542565e-16 0.08715573 -0.9961947 -1.542565e-16 0.08715573 -0.9961947 -1.542565e-16 0.08715573 -0.9961947 -1.542565e-16 0.08715573 1 -0 -0 1 -0 -0 1 -0 -0 1 -0 -0 -1 0 0 -1 0 0 -1 0 0 -1 0 0</float_array>
                    <technique_common>
                        <accessor count="72" source="#ID116" stride="3">
                            <param name="X" type="float"/>
                            <param name="Y" type="float"/>
                            <param name="Z" type="float"/>
                        </accessor>
                    </technique_common>
                </source>
                <vertices id="ID114">
                    <input semantic="POSITION" source="#ID112"/>
                    <input semantic="NORMAL" source="#ID113"/>
                </vertices>
                <triangles count="36" material="Material2">
                    <input offset="0" semantic="VERTEX" source="#ID114"/>
                    <p>0 1 2 1 0 3 4 5 6 7 6 5 8 9 10 9 8 11 12 13 14 15 14 13 16 17 18 17 16 19 20 21 22 23 22 21 24 25 26 25 24 27 28 29 30 31 30 29 32 33 34 33 32 35 36 37 38 39 38 37 40 41 42 41 40 43 44 45 46 47 46 45 48 49 50 49 48 51 52 53 54 55 54 53 56 57 58 57 56 59 60 61 62 63 62 61 64 65 66 65 64 67 68 69 70 71 70 69</p>
                </triangles>
            </mesh>
        </geometry>
    </library_geometries>
    <library_materials>
        <material id="ID6" name="material">
            <instance_effect url="#ID5"/>
        </material>
        <material id="ID38" name="M1">
            <instance_effect url="#ID39"/>
        </material>
        <material id="ID67" name="M00_Soft_Cloud">
            <instance_effect url="#ID68"/>
        </material>
    </library_materials>
    <library_effects>
        <effect id="ID5">
            <profile_COMMON>
                <technique sid="COMMON">
                    <lambert>
                        <diffuse>
                            <color>1 1 1 1</color>
                        </diffuse>
                    </lambert>
                </technique>
            </profile_COMMON>
        </effect>
        <effect id="ID39">
            <profile_COMMON>
                <technique sid="COMMON">
                    <lambert>
                        <diffuse>
                            <color>0.9647059 0.7254902 0.3921569 1</color>
                        </diffuse>
                    </lambert>
                </technique>
            </profile_COMMON>
        </effect>
        <effect id="ID68">
            <profile_COMMON>
                <technique sid="COMMON">
                    <lambert>
                        <diffuse>
                            <color>1 1 1 1</color>
                        </diffuse>
                    </lambert>
                </technique>
            </profile_COMMON>
        </effect>
    </library_effects>
    <library_nodes>
        <node id="ID92" name="Shape_Defintion">
            <instance_geometry url="#ID93">
                <bind_material>
                    <technique_common>
                        <instance_material symbol="Material2" target="#ID38">
                            <bind_vertex_input semantic="UVSET0" input_semantic="TEXCOORD" input_set="0"/>
                        </instance_material>
                    </technique_common>
                </bind_material>
            </instance_geometry>
            <instance_geometry url="#ID99">
                <bind_material>
                    <technique_common>
                        <instance_material symbol="Material2" target="#ID38">
                            <bind_vertex_input semantic="UVSET0" input_semantic="TEXCOORD" input_set="0"/>
                        </instance_material>
                    </technique_common>
                </bind_material>
            </instance_geometry>
            <instance_geometry url="#ID105">
                <bind_material>
                    <technique_common>
                        <instance_material symbol="Material2" target="#ID38">
                            <bind_vertex_input semantic="UVSET0" input_semantic="TEXCOORD" input_set="0"/>
                        </instance_material>
                    </technique_common>
                </bind_material>
            </instance_geometry>
            <instance_geometry url="#ID111">
                <bind_material>
                    <technique_common>
                        <instance_material symbol="Material2" target="#ID38">
                            <bind_vertex_input semantic="UVSET0" input_semantic="TEXCOORD" input_set="0"/>
                        </instance_material>
                    </technique_common>
                </bind_material>
            </instance_geometry>
        </node>
    </library_nodes>
    <scene>
        <instance_visual_scene url="#ID2"/>
    </scene>
</COLLADA>
