#VRML V2.0 utf8

Group {
  children [
    Group {
      children [
        Shape {
          appearance DEF M1 Appearance {
            material Material {
              diffuseColor 0.96471 0.72941 0.39216
              specularColor 0.05 0.05 0.05
              shininess 0.5
            }
          }
          geometry IndexedFaceSet {
            coord Coordinate {
              point [
0.05 -3.25 2.92849731,-0.44999999 -3.25 -0,0.05 -3.25 -0,-0.44999999 -3.25 2.92849731,0.05 -2.75 2.92849731,0.05 -2.75 -0,-0.44999999 -2.75 -0,-0.44999999 -2.75 2.92849731,0 -2.79999995 3.5,0 -3.20000005 3.5,-0.40000001 -3.20000005 3.5,-0.40000001 -2.79999995 3.5,-0.44999999 -3.25 -0.5,-0.44999999 -2.75 -0.5,-0.44999999 -2.75 -2.92849731,-0.44999999 -3.25 -2.92849731,0.05 -2.75 -0.5,0.05 -2.75 -2.92849731,-0.40000001 -2.79999995 -3.5,-0.40000001 -3.20000005 -3.5,0 -3.20000005 -3.5,0.05 -3.25 -2.92849731,0 -2.79999995 -3.5,0.05 -3.25 -0.5,0.05 -1.25 2.92849731,-0.44999999 -1.25 -0,0.05 -1.25 -0,-0.44999999 -1.25 2.92849731,0.05 -0.75 2.92849731,0.05 -0.75 -0,-0.44999999 -0.75 -0,-0.44999999 -0.75 2.92849731,0 -0.80000001 3.5,0 -1.20000005 3.5,-0.40000001 -1.20000005 3.5,-0.40000001 -0.80000001 3.5,-0.44999999 -1.25 -0.5,-0.44999999 -0.75 -0.5,-0.44999999 -0.75 -2.92849731,-0.44999999 -1.25 -2.92849731,0.05 -0.75 -0.5,0.05 -0.75 -2.92849731,-0.40000001 -0.80000001 -3.5,-0.40000001 -1.20000005 -3.5,0 -1.20000005 -3.5,0.05 -1.25 -2.92849731,0 -0.80000001 -3.5,0.05 -1.25 -0.5,0.05 0.75 2.92849731,-0.44999999 0.75 0,0.05 0.75 0,-0.44999999 0.75 2.92849731,0.05 1.25 2.92849731,0.05 1.25 0,-0.44999999 1.25 0,-0.44999999 1.25 2.92849731,0 1.20000005 3.5,0 0.80000001 3.5,-0.40000001 0.80000001 3.5,-0.40000001 1.20000005 3.5,-0.44999999 0.75 -0.5,-0.44999999 1.25 -0.5,-0.44999999 1.25 -2.92849731,-0.44999999 0.75 -2.92849731,0.05 1.25 -0.5,0.05 1.25 -2.92849731,-0.40000001 1.20000005 -3.5,-0.40000001 0.80000001 -3.5,0 0.80000001 -3.5,0.05 0.75 -2.92849731,0 1.20000005 -3.5,0.05 0.75 -0.5,-0.40000001 2.79999995 -3.5,-0.44999999 2.75 -2.92849731,-0.44999999 3.25 -2.92849731,-0.40000001 3.20000005 -3.5,0 2.79999995 -3.5,0.05 2.75 -2.92849731,0 3.20000005 -3.5,0.05 3.25 -2.92849731,-0.44999999 3.25 -0.5,0.05 3.25 -0.5,-0.44999999 2.75 -0.5,0.05 2.75 -0.5,0.05 3.25 2.92849731,0 3.20000005 3.5,0 2.79999995 3.5,0.05 2.75 2.92849731,-0.44999999 2.75 2.92849731,-0.40000001 2.79999995 3.5,-0.44999999 3.25 2.92849731,-0.40000001 3.20000005 3.5,0.05 3.25 0,-0.44999999 3.25 0,0.05 2.75 0,-0.44999999 2.75 0              ]
            }
            coordIndex [
0,1,2,-1,0,3,1,-1,4,2,5,-1,4,0,2,-1,3,6,1,-1,3,7,6,-1,7,5,6,-1,7,4,5,-1,0,8,9,-1,0,4,8,-1,3,9,10,-1,3,0,9,-1,3,10,11,-1,7,3,11,-1,4,7,11,-1,4,11,8,-1,9,8,11,-1,9,11,10,-1,12,13,14,-1,12,14,15,-1,13,16,17,-1,13,17,14,-1,18,19,15,-1,18,15,14,-1,19,20,21,-1,19,21,15,-1,22,17,21,-1,20,22,21,-1,22,14,17,-1,22,18,14,-1,22,19,18,-1,22,20,19,-1,16,23,21,-1,16,21,17,-1,23,12,15,-1,23,15,21,-1,24,25,26,-1,24,27,25,-1,28,26,29,-1,28,24,26,-1,27,30,25,-1,27,31,30,-1,31,29,30,-1,31,28,29,-1,24,32,33,-1,24,28,32,-1,27,33,34,-1,27,24,33,-1,31,34,35,-1,31,27,34,-1,28,31,35,-1,28,35,32,-1,33,32,35,-1,33,35,34,-1,36,37,38,-1,36,38,39,-1,37,40,41,-1,37,41,38,-1,42,43,39,-1,42,39,38,-1,43,44,45,-1,43,45,39,-1,44,46,41,-1,44,41,45,-1,46,38,41,-1,46,42,38,-1,46,43,42,-1,46,44,43,-1,40,47,45,-1,40,45,41,-1,47,36,39,-1,47,39,45,-1,48,49,50,-1,48,51,49,-1,52,50,53,-1,52,48,50,-1,51,54,49,-1,51,55,54,-1,55,53,54,-1,55,52,53,-1,48,56,57,-1,48,52,56,-1,51,57,58,-1,51,48,57,-1,55,58,59,-1,55,51,58,-1,52,55,59,-1,52,59,56,-1,57,56,59,-1,57,59,58,-1,60,61,62,-1,60,62,63,-1,61,64,65,-1,61,65,62,-1,66,67,63,-1,66,63,62,-1,67,68,69,-1,67,69,63,-1,68,70,65,-1,68,65,69,-1,70,62,65,-1,70,66,62,-1,70,67,66,-1,70,68,67,-1,64,71,69,-1,64,69,65,-1,71,60,63,-1,71,63,69,-1,72,73,74,-1,75,72,74,-1,72,76,77,-1,72,77,73,-1,76,78,79,-1,76,79,77,-1,78,74,79,-1,78,75,74,-1,80,79,74,-1,80,81,79,-1,82,74,73,-1,82,80,74,-1,78,72,75,-1,78,76,72,-1,81,77,79,-1,81,83,77,-1,83,73,77,-1,83,82,73,-1,84,85,86,-1,87,84,86,-1,88,86,89,-1,88,87,86,-1,90,89,91,-1,90,88,89,-1,84,90,91,-1,84,91,85,-1,90,84,92,-1,90,92,93,-1,84,87,94,-1,84,94,92,-1,86,85,91,-1,86,91,89,-1,87,88,95,-1,87,95,94,-1,88,90,93,-1,88,93,95            ]
            ccw TRUE
          }
        }
        Shape {
          appearance DEF M0 Appearance {
            material Material {
              diffuseColor 0.95686 0.95686 0.95686
              specularColor 0.05 0.05 0.05
              shininess 0.5
            }
          }
          geometry IndexedFaceSet {
            coord Coordinate {
              point [
1.25 -2.95000005 -4.69999981,1.75 -1.75 -4.69999981,1.75 -2.95000005 -4.69999981,1.75 1.75 -4.69999981,1.25 2.95000005 -4.69999981,1.75 2.95000005 -4.69999981,1.25 -2.95000005 -8.10000038,1.75 -2.95000005 -8.10000038,1.25 2.95000005 -8.10000038,1.75 2.95000005 -8.10000038,-2.04999995 4.5 -8.10000038,-2.04999995 3.5 -8.10000038,-2.54999995 3.5 -8.10000038,-2.54999995 5 -8.10000038,1.75 3.3499999 -8.10000038,1.25 3.8499999 -8.10000038,2.04999995 3.8499999 -8.10000038,2.54999995 3.3499999 -8.10000038,2.04999995 4.5 -8.10000038,2.54999995 5 -8.10000038,-2.54999995 -3.5 -8.10000038,-2.04999995 -4.5 -8.10000038,-2.54999995 -5 -8.10000038,-2.04999995 -3.5 -8.10000038,2.54999995 -5 -8.10000038,2.04999995 -4.5 -8.10000038,1.75 -3.3499999 -8.10000038,2.04999995 -3.8499999 -8.10000038,1.25 -3.8499999 -8.10000038,2.54999995 -3.3499999 -8.10000038,1.75 3.3499999 -1.20000005,1.75 5 -1.20000005,1.75 5 0,1.75 1.75 -3.0999999,1.75 -1.75 -3.0999999,1.75 -3.3499999 -1.20000005,1.75 -5 -0,1.75 -5 -1.20000005,-2.04999995 3.5 -6.80000019,-2.04999995 -3.5 -6.80000019,-2.54999995 3.5 -6.80000019,-2.54999995 -3.5 -6.80000019,-2.04999995 -4.5 -0.5,-2.04999995 4.5 -0.5,1.25 4.5 -1.70000005,2.04999995 4.5 -1.70000005,2.04999995 3.8499999 -1.70000005,1.25 3.8499999 -1.70000005,1.25 -3.8499999 -1.70000005,2.04999995 -4.5 -1.70000005,1.25 -4.5 -1.70000005,2.04999995 -3.8499999 -1.70000005,1.25 -4.5 -0.5,1.25 4.5 -0.5,-0.44999999 -3.25 -0.5,0.05 -3.25 -0.5,-0.44999999 -2.75 -0.5,0.05 -2.75 -0.5,-0.44999999 -1.25 -0.5,-0.44999999 -0.75 -0.5,0.05 -1.25 -0.5,0.05 0.75 -0.5,0.05 -0.75 -0.5,-0.44999999 0.75 -0.5,-0.44999999 1.25 -0.5,-0.44999999 2.75 -0.5,0.05 2.75 -0.5,0.05 1.25 -0.5,-0.44999999 3.25 -0.5,0.05 3.25 -0.5,2.45000005 -1.75 -3.0999999,2.45000005 1.75 -3.0999999,2.45000005 -1.75 -3.5,2.45000005 1.75 -3.5,2.54999995 5 -1.20000005,2.54999995 3.3499999 -1.20000005,2.54999995 -3.3499999 -1.20000005,2.54999995 -5 -1.20000005,-2.54999995 -5 -0,-2.54999995 5 0,-0.44999999 -3.25 -0,0.05 -3.25 -0,-0.44999999 -2.75 -0,0.05 -2.75 -0,-0.44999999 -1.25 -0,-0.44999999 -0.75 -0,0.05 -1.25 -0,0.05 -0.75 -0,0.05 0.75 0,-0.44999999 0.75 0,-0.44999999 1.25 0,-0.44999999 2.75 0,0.05 1.25 0,0.05 2.75 0,-0.44999999 3.25 0,0.05 3.25 0              ]
            }
            coordIndex [
0,1,2,-1,3,4,5,-1,0,4,1,-1,1,4,3,-1,6,0,7,-1,7,0,2,-1,4,8,5,-1,5,8,9,-1,10,11,12,-1,10,12,13,-1,14,9,8,-1,14,8,15,-1,16,14,15,-1,17,14,16,-1,18,17,16,-1,19,18,10,-1,19,10,13,-1,19,17,18,-1,20,21,22,-1,23,21,20,-1,24,21,25,-1,24,22,21,-1,26,27,28,-1,26,28,6,-1,7,26,6,-1,29,25,27,-1,29,27,26,-1,29,24,25,-1,30,31,32,-1,5,30,33,-1,3,5,33,-1,34,33,30,-1,34,30,35,-1,36,30,32,-1,36,35,30,-1,9,14,5,-1,37,35,36,-1,2,1,34,-1,2,34,35,-1,26,7,2,-1,14,30,5,-1,35,26,2,-1,38,39,40,-1,40,39,41,-1,11,38,12,-1,12,38,40,-1,39,23,41,-1,41,23,20,-1,42,21,39,-1,21,23,39,-1,42,38,43,-1,39,38,42,-1,11,10,38,-1,38,10,43,-1,44,45,46,-1,44,46,47,-1,48,49,50,-1,48,51,49,-1,50,42,52,-1,49,25,50,-1,50,21,42,-1,25,21,50,-1,43,44,53,-1,43,10,44,-1,44,18,45,-1,10,18,44,-1,52,42,54,-1,55,52,54,-1,56,54,42,-1,57,52,55,-1,58,56,42,-1,59,58,42,-1,60,57,56,-1,60,56,58,-1,60,52,57,-1,61,62,59,-1,61,59,63,-1,43,64,63,-1,43,63,59,-1,43,59,42,-1,43,65,64,-1,66,67,64,-1,66,64,65,-1,68,65,43,-1,53,69,68,-1,53,66,69,-1,53,67,66,-1,53,68,43,-1,53,52,60,-1,53,60,62,-1,53,62,61,-1,53,61,67,-1,18,16,45,-1,45,16,46,-1,27,25,51,-1,51,25,49,-1,28,27,48,-1,48,27,51,-1,44,47,53,-1,15,8,4,-1,53,48,52,-1,47,48,53,-1,48,50,52,-1,4,0,47,-1,47,0,48,-1,6,28,0,-1,47,15,4,-1,28,48,0,-1,16,15,46,-1,46,15,47,-1,34,70,33,-1,33,70,71,-1,72,1,73,-1,73,1,3,-1,34,72,70,-1,1,72,34,-1,74,31,75,-1,75,31,30,-1,76,35,77,-1,77,35,37,-1,78,37,36,-1,24,77,37,-1,22,37,78,-1,22,24,37,-1,31,79,32,-1,13,79,31,-1,19,31,74,-1,19,13,31,-1,78,36,80,-1,36,81,80,-1,80,82,78,-1,36,83,81,-1,82,84,78,-1,84,85,78,-1,83,86,82,-1,82,86,84,-1,36,86,83,-1,36,87,86,-1,87,88,85,-1,85,88,89,-1,90,79,89,-1,89,79,85,-1,85,79,78,-1,91,79,90,-1,92,93,90,-1,90,93,91,-1,91,94,79,-1,88,32,92,-1,93,32,95,-1,95,32,94,-1,92,32,93,-1,94,32,79,-1,36,32,87,-1,87,32,88,-1,17,74,75,-1,17,19,74,-1,41,22,78,-1,20,22,41,-1,40,78,79,-1,40,41,78,-1,13,12,40,-1,13,40,79,-1,24,76,77,-1,24,29,76,-1,29,35,76,-1,29,26,35,-1,72,71,70,-1,72,73,71,-1,73,33,71,-1,3,33,73,-1,14,75,30,-1,14,17,75            ]
            ccw TRUE
          }
        }
      ]
    }
  ]
}
